<svg width="104" height="104" viewBox="0 0 104 104" fill="none" xmlns="http://www.w3.org/2000/svg">
<path d="M51.6791 8.62036C27.8869 8.62036 8.62036 27.93 8.62036 51.7222C8.62036 75.5144 27.8869 94.8241 51.6791 94.8241C75.5144 94.8241 94.8241 75.5144 94.8241 51.7222C94.8241 27.93 75.5144 8.62036 51.6791 8.62036ZM51.7222 86.2037C32.6712 86.2037 17.2407 70.7732 17.2407 51.7222C17.2407 32.6712 32.6712 17.2407 51.7222 17.2407C70.7732 17.2407 86.2037 32.6712 86.2037 51.7222C86.2037 70.7732 70.7732 86.2037 51.7222 86.2037Z" fill="#428CD3"/>
<path d="M53.8773 30.1713H47.412V56.0324L70.0405 69.6095L73.2732 64.3079L53.8773 52.7997V30.1713Z" fill="#428CD3"/>
</svg>
