<svg width="477" height="337" viewBox="0 0 477 337" fill="none" xmlns="http://www.w3.org/2000/svg">
<path d="M82.8908 175.827H63.1636C62.47 175.827 61.8047 176.103 61.3143 176.594C60.8238 177.085 60.5482 177.751 60.5482 178.445V187.113C60.5482 187.807 60.8238 188.473 61.3143 188.964C61.8047 189.455 62.47 189.731 63.1636 189.731H66.4327V202.717H79.6217V189.731H82.8908C83.5844 189.731 84.2497 189.455 84.7402 188.964C85.2306 188.473 85.5062 187.807 85.5062 187.113V178.445C85.5062 177.751 85.2306 177.085 84.7402 176.594C84.2497 176.103 83.5844 175.827 82.8908 175.827Z" fill="#CBCDDA"/>
<path d="M102.65 255.151C90.5681 237.455 84.3918 216.386 85.0055 194.961C85.0165 194.466 84.8562 193.983 84.5519 193.594C84.2475 193.204 83.8179 192.932 83.3359 192.824V189.079H62.5014V192.772H62.2144C61.9205 192.772 61.6299 192.833 61.3607 192.951C61.0914 193.069 60.8493 193.241 60.6495 193.457C60.4497 193.673 60.2965 193.927 60.1994 194.205C60.1023 194.482 60.0634 194.777 60.0852 195.07C61.7266 217.973 56.1841 238.512 43.4577 256.687C42.7253 257.732 42.3512 258.986 42.3914 260.261L44.6695 330.801C44.7243 332.374 45.384 333.865 46.5109 334.964C47.6379 336.062 49.145 336.682 50.7177 336.694H97.8422C99.4329 336.681 100.956 336.047 102.086 334.927C103.216 333.807 103.865 332.289 103.894 330.697L104.772 262.209C104.798 259.695 104.058 257.233 102.65 255.151Z" fill="#3F3D56"/>
<path opacity="0.2" d="M78.7784 178.651C78.7784 180.149 78.184 181.586 77.1257 182.645C76.0675 183.704 74.6323 184.3 73.1358 184.3C71.6392 184.3 70.204 183.704 69.1458 182.645C68.0876 181.586 67.4931 180.149 67.4931 178.651" fill="#FFA616"/>
<path d="M95.1898 278.582H89.4833C88.9385 275.044 87.1466 271.817 84.4315 269.486C81.7165 267.155 78.2577 265.874 74.6809 265.874C71.104 265.874 67.6452 267.155 64.9302 269.486C62.2151 271.817 60.4232 275.044 59.8784 278.582H54.1716C53.5644 278.582 52.9644 278.714 52.4127 278.967C51.861 279.221 51.3707 279.592 50.9754 280.053C50.58 280.514 50.289 281.056 50.1223 281.64C49.9555 282.224 49.917 282.838 50.0093 283.439L56.2077 323.768H91.8L99.3289 283.574C99.4429 282.966 99.4215 282.339 99.2662 281.74C99.1109 281.14 98.8255 280.582 98.4304 280.106C98.0352 279.629 97.5399 279.245 96.9798 278.982C96.4197 278.719 95.8085 278.582 95.1898 278.582Z" fill="#CBCDDA"/>
<path d="M308.559 335.963C401.24 335.963 476.374 260.755 476.374 167.982C476.374 75.2079 401.24 0 308.559 0C215.877 0 140.743 75.2079 140.743 167.982C140.743 260.755 215.877 335.963 308.559 335.963Z" fill="#CBCDDA"/>
<path opacity="0.2" d="M308.559 290.592C280.22 290.592 252.759 280.756 230.853 262.76C208.947 244.765 193.953 219.723 188.425 191.902C182.896 164.08 187.176 135.201 200.535 110.184C213.893 85.1674 235.504 65.561 261.686 54.7058C287.867 43.8506 316.998 42.4181 344.116 50.6525C371.234 58.8868 394.661 76.2786 410.405 99.8644C426.149 123.45 433.235 151.771 430.458 180C427.68 208.23 415.21 234.622 395.172 254.681C383.824 266.102 370.326 275.156 355.459 281.32C340.592 287.485 324.651 290.636 308.559 290.592ZM308.559 52.9331C245.183 52.9331 193.624 104.544 193.624 167.982C193.624 231.419 245.183 283.03 308.559 283.03C371.934 283.03 423.493 231.419 423.493 167.982C423.493 104.544 371.934 52.9331 308.559 52.9331Z" fill="#FFA616"/>
<path d="M308.559 286.811C374.121 286.811 427.27 233.609 427.27 167.982C427.27 102.354 374.121 49.1522 308.559 49.1522C242.996 49.1522 189.847 102.354 189.847 167.982C189.847 233.609 242.996 286.811 308.559 286.811Z" fill="#3F3D56"/>
<path d="M220.275 120.467C219.375 118.702 218.831 116.776 218.675 114.801C218.518 112.825 218.752 110.838 219.363 108.953C219.975 107.068 220.951 105.322 222.237 103.815C223.522 102.308 225.092 101.07 226.857 100.17C228.621 99.2709 230.545 98.7285 232.519 98.574C234.492 98.4194 236.477 98.6558 238.36 99.2696C240.242 99.8835 241.985 100.863 243.49 102.151C244.994 103.44 246.229 105.013 247.126 106.78L280.665 172.705C281.565 174.47 282.109 176.396 282.266 178.371C282.422 180.347 282.188 182.334 281.577 184.219C280.966 186.104 279.989 187.85 278.704 189.357C277.418 190.864 275.848 192.102 274.084 193.002C272.32 193.901 270.396 194.444 268.422 194.598C266.448 194.753 264.463 194.516 262.581 193.902C260.698 193.289 258.955 192.309 257.451 191.021C255.947 189.732 254.711 188.159 253.814 186.392L220.275 120.467Z" fill="#FF6584"/>
<path opacity="0.2" d="M224.016 127.82L222.468 124.777C230.193 118.769 239.265 114.35 249.319 111.09L250.867 114.133C239.986 116.401 230.728 120.598 224.016 127.82Z" fill="#FFA616"/>
<path opacity="0.2" d="M231.24 142.019L229.692 138.977C237.417 132.968 246.489 128.549 256.543 125.289L258.091 128.332C247.21 130.6 237.952 134.798 231.24 142.019Z" fill="#FFA616"/>
<path opacity="0.2" d="M238.464 156.219L236.916 153.176C244.641 147.167 253.713 142.748 263.767 139.489L265.315 142.532C254.433 144.8 245.176 148.997 238.464 156.219Z" fill="#FFA616"/>
<path opacity="0.2" d="M245.688 170.418L244.14 167.375C251.865 161.367 260.937 156.948 270.99 153.688L272.538 156.731C261.657 158.999 252.4 163.197 245.688 170.418Z" fill="#FFA616"/>
<path opacity="0.2" d="M252.911 184.618L251.363 181.575C259.089 175.566 268.161 171.147 278.214 167.888L279.762 170.93C268.881 173.199 259.624 177.396 252.911 184.618Z" fill="#FFA616"/>
<path d="M195.113 145.147C194.213 143.382 193.669 141.457 193.513 139.481C193.357 137.506 193.591 135.519 194.202 133.634C194.814 131.749 195.79 130.003 197.076 128.496C198.361 126.99 199.931 125.751 201.695 124.852C203.459 123.953 205.383 123.41 207.357 123.256C209.331 123.101 211.315 123.337 213.198 123.951C215.08 124.565 216.823 125.544 218.327 126.832C219.831 128.12 221.067 129.693 221.964 131.46L255.503 197.385C257.311 200.949 257.632 205.086 256.396 208.886C255.159 212.686 252.465 215.84 248.907 217.654C245.349 219.467 241.217 219.793 237.419 218.559C233.621 217.325 230.468 214.632 228.652 211.073L195.113 145.147Z" fill="#FF6584"/>
<path opacity="0.2" d="M198.854 152.5L197.306 149.457C205.031 143.449 214.103 139.03 224.157 135.77L225.705 138.813C214.824 141.081 205.566 145.279 198.854 152.5Z" fill="#FFA616"/>
<path opacity="0.2" d="M206.078 166.7L204.53 163.657C212.255 157.648 221.327 153.229 231.381 149.97L232.929 153.012C222.047 155.281 212.79 159.478 206.078 166.7Z" fill="#FFA616"/>
<path opacity="0.2" d="M213.302 180.899L211.754 177.856C219.479 171.848 228.551 167.429 238.604 164.169L240.152 167.212C229.271 169.48 220.014 173.677 213.302 180.899Z" fill="#FFA616"/>
<path opacity="0.2" d="M220.525 195.098L218.977 192.056C226.703 186.047 235.775 181.628 245.828 178.368L247.376 181.411C236.495 183.679 227.238 187.877 220.525 195.098Z" fill="#FFA616"/>
<path opacity="0.2" d="M227.749 209.298L226.201 206.255C233.927 200.246 242.998 195.828 253.052 192.568L254.6 195.611C243.719 197.879 234.462 202.076 227.749 209.298Z" fill="#FFA616"/>
<path d="M387.88 171.763L387.986 171.763C391.598 171.793 395.136 170.733 398.137 168.72C401.139 166.708 403.465 163.837 404.811 160.481C407.581 153.472 408.977 145.996 408.923 138.459C408.735 106.558 382.807 80.3869 350.94 79.9456C337.369 79.7554 324.149 84.2687 313.523 92.7204C302.896 101.172 295.516 113.042 292.633 126.318C289.751 139.595 291.543 153.46 297.707 165.565C303.871 177.669 314.027 187.268 326.453 192.733C329.737 194.188 333.383 194.616 336.914 193.961C340.445 193.306 343.696 191.597 346.24 189.06C351.697 183.569 358.186 179.214 365.333 176.245C372.479 173.276 380.142 171.753 387.88 171.763Z" fill="#E6E6E6"/>
<path d="M357.662 153.938C368.391 153.938 377.088 145.232 377.088 134.493C377.088 123.754 368.391 115.049 357.662 115.049C346.934 115.049 338.237 123.754 338.237 134.493C338.237 145.232 346.934 153.938 357.662 153.938Z" fill="#428CD3"/>
<path d="M315.443 132.307C316.707 132.307 317.732 131.281 317.732 130.016C317.732 128.751 316.707 127.725 315.443 127.725C314.179 127.725 313.155 128.751 313.155 130.016C313.155 131.281 314.179 132.307 315.443 132.307Z" fill="#3F3D56"/>
<path d="M239.899 134.467C241.163 134.467 242.188 133.442 242.188 132.177C242.188 130.912 241.163 129.886 239.899 129.886C238.636 129.886 237.611 130.912 237.611 132.177C237.611 133.442 238.636 134.467 239.899 134.467Z" fill="#3F3D56"/>
<path d="M327.64 108.567C328.903 108.567 329.928 107.541 329.928 106.276C329.928 105.011 328.903 103.986 327.64 103.986C326.376 103.986 325.351 105.011 325.351 106.276C325.351 107.541 326.376 108.567 327.64 108.567Z" fill="#3F3D56"/>
<path d="M327.575 174.593C328.838 174.593 329.863 173.568 329.863 172.303C329.863 171.038 328.838 170.012 327.575 170.012C326.311 170.012 325.286 171.038 325.286 172.303C325.286 173.568 326.311 174.593 327.575 174.593Z" fill="#3F3D56"/>
<path d="M372.901 103.836C374.165 103.836 375.189 102.81 375.189 101.545C375.189 100.28 374.165 99.2545 372.901 99.2545C371.637 99.2545 370.612 100.28 370.612 101.545C370.612 102.81 371.637 103.836 372.901 103.836Z" fill="#3F3D56"/>
<path d="M225.051 166.491C226.315 166.491 227.339 165.466 227.339 164.201C227.339 162.936 226.315 161.91 225.051 161.91C223.787 161.91 222.762 162.936 222.762 164.201C222.762 165.466 223.787 166.491 225.051 166.491Z" fill="#3F3D56"/>
<path d="M241.778 199.44C243.042 199.44 244.067 198.414 244.067 197.149C244.067 195.884 243.042 194.858 241.778 194.858C240.514 194.858 239.49 195.884 239.49 197.149C239.49 198.414 240.514 199.44 241.778 199.44Z" fill="#3F3D56"/>
<path d="M346.87 210.112C351.638 210.112 355.504 206.243 355.504 201.47C355.504 196.697 351.638 192.828 346.87 192.828C342.102 192.828 338.237 196.697 338.237 201.47C338.237 206.243 342.102 210.112 346.87 210.112Z" fill="#FF6584"/>
<path opacity="0.2" d="M353.345 202.01C353.345 203.729 352.663 205.378 351.449 206.593C350.234 207.809 348.587 208.492 346.87 208.492C345.153 208.492 343.506 207.809 342.291 206.593C341.077 205.378 340.395 203.729 340.395 202.01" fill="#FFA616"/>
<path opacity="0.2" d="M340.395 200.93C340.395 199.211 341.077 197.562 342.291 196.347C343.506 195.131 345.153 194.448 346.87 194.448C348.587 194.448 350.234 195.131 351.449 196.347C352.663 197.562 353.345 199.211 353.345 200.93" fill="#FFA616"/>
<path d="M343.633 199.309C343.931 199.309 344.172 198.947 344.172 198.499C344.172 198.052 343.931 197.689 343.633 197.689C343.335 197.689 343.093 198.052 343.093 198.499C343.093 198.947 343.335 199.309 343.633 199.309Z" fill="#FF6584"/>
<path d="M346.87 198.229C347.168 198.229 347.41 197.866 347.41 197.419C347.41 196.972 347.168 196.609 346.87 196.609C346.572 196.609 346.331 196.972 346.331 197.419C346.331 197.866 346.572 198.229 346.87 198.229Z" fill="#FF6584"/>
<path d="M346.87 205.251C347.168 205.251 347.41 204.888 347.41 204.441C347.41 203.993 347.168 203.63 346.87 203.63C346.572 203.63 346.331 203.993 346.331 204.441C346.331 204.888 346.572 205.251 346.87 205.251Z" fill="#FF6584"/>
<path d="M350.108 200.93C350.406 200.93 350.647 200.567 350.647 200.12C350.647 199.672 350.406 199.309 350.108 199.309C349.81 199.309 349.568 199.672 349.568 200.12C349.568 200.567 349.81 200.93 350.108 200.93Z" fill="#FF6584"/>
<path d="M349.568 206.871C349.866 206.871 350.108 206.509 350.108 206.061C350.108 205.614 349.866 205.251 349.568 205.251C349.27 205.251 349.029 205.614 349.029 206.061C349.029 206.509 349.27 206.871 349.568 206.871Z" fill="#FF6584"/>
<path d="M343.093 204.171C343.391 204.171 343.633 203.808 343.633 203.36C343.633 202.913 343.391 202.55 343.093 202.55C342.795 202.55 342.553 202.913 342.553 203.36C342.553 203.808 342.795 204.171 343.093 204.171Z" fill="#FF6584"/>
<path d="M364.137 186.886C368.905 186.886 372.771 183.017 372.771 178.244C372.771 173.471 368.905 169.602 364.137 169.602C359.369 169.602 355.504 173.471 355.504 178.244C355.504 183.017 359.369 186.886 364.137 186.886Z" fill="#FF6584"/>
<path opacity="0.2" d="M370.612 178.784C370.612 180.503 369.93 182.152 368.716 183.368C367.502 184.583 365.855 185.266 364.137 185.266C362.42 185.266 360.773 184.583 359.559 183.368C358.344 182.152 357.662 180.503 357.662 178.784" fill="#FFA616"/>
<path opacity="0.2" d="M357.662 177.704C357.662 175.985 358.344 174.336 359.559 173.121C360.773 171.905 362.42 171.222 364.137 171.222C365.855 171.222 367.502 171.905 368.716 173.121C369.93 174.336 370.612 175.985 370.612 177.704" fill="#FFA616"/>
<path d="M360.9 176.084C361.198 176.084 361.439 175.721 361.439 175.273C361.439 174.826 361.198 174.463 360.9 174.463C360.602 174.463 360.36 174.826 360.36 175.273C360.36 175.721 360.602 176.084 360.9 176.084Z" fill="#FF6584"/>
<path d="M364.137 175.003C364.435 175.003 364.677 174.641 364.677 174.193C364.677 173.746 364.435 173.383 364.137 173.383C363.839 173.383 363.598 173.746 363.598 174.193C363.598 174.641 363.839 175.003 364.137 175.003Z" fill="#FF6584"/>
<path d="M364.137 182.025C364.435 182.025 364.677 181.662 364.677 181.215C364.677 180.767 364.435 180.405 364.137 180.405C363.839 180.405 363.598 180.767 363.598 181.215C363.598 181.662 363.839 182.025 364.137 182.025Z" fill="#FF6584"/>
<path d="M367.375 177.704C367.673 177.704 367.915 177.341 367.915 176.894C367.915 176.446 367.673 176.084 367.375 176.084C367.077 176.084 366.835 176.446 366.835 176.894C366.835 177.341 367.077 177.704 367.375 177.704Z" fill="#FF6584"/>
<path d="M366.835 183.646C367.133 183.646 367.375 183.283 367.375 182.835C367.375 182.388 367.133 182.025 366.835 182.025C366.537 182.025 366.296 182.388 366.296 182.835C366.296 183.283 366.537 183.646 366.835 183.646Z" fill="#FF6584"/>
<path d="M360.36 180.945C360.658 180.945 360.9 180.582 360.9 180.135C360.9 179.687 360.658 179.324 360.36 179.324C360.062 179.324 359.82 179.687 359.82 180.135C359.82 180.582 360.062 180.945 360.36 180.945Z" fill="#FF6584"/>
<path d="M381.404 198.769C386.173 198.769 390.038 194.9 390.038 190.127C390.038 185.354 386.173 181.485 381.404 181.485C376.636 181.485 372.771 185.354 372.771 190.127C372.771 194.9 376.636 198.769 381.404 198.769Z" fill="#CBCDDA"/>
<path opacity="0.2" d="M387.88 190.667C387.88 192.386 387.197 194.035 385.983 195.251C384.769 196.466 383.122 197.149 381.404 197.149C379.687 197.149 378.04 196.466 376.826 195.251C375.611 194.035 374.929 192.386 374.929 190.667" fill="#FFA616"/>
<path opacity="0.2" d="M374.929 189.587C374.929 187.868 375.611 186.219 376.826 185.004C378.04 183.788 379.687 183.105 381.404 183.105C383.122 183.105 384.769 183.788 385.983 185.004C387.197 186.219 387.88 187.868 387.88 189.587" fill="#FFA616"/>
<path d="M378.167 187.967C378.465 187.967 378.706 187.604 378.706 187.156C378.706 186.709 378.465 186.346 378.167 186.346C377.869 186.346 377.627 186.709 377.627 187.156C377.627 187.604 377.869 187.967 378.167 187.967Z" fill="#CBCDDA"/>
<path d="M381.404 186.886C381.702 186.886 381.944 186.524 381.944 186.076C381.944 185.629 381.702 185.266 381.404 185.266C381.106 185.266 380.865 185.629 380.865 186.076C380.865 186.524 381.106 186.886 381.404 186.886Z" fill="#CBCDDA"/>
<path d="M381.404 193.908C381.702 193.908 381.944 193.545 381.944 193.098C381.944 192.65 381.702 192.288 381.404 192.288C381.106 192.288 380.865 192.65 380.865 193.098C380.865 193.545 381.106 193.908 381.404 193.908Z" fill="#CBCDDA"/>
<path d="M384.642 189.587C384.94 189.587 385.182 189.224 385.182 188.777C385.182 188.329 384.94 187.967 384.642 187.967C384.344 187.967 384.103 188.329 384.103 188.777C384.103 189.224 384.344 189.587 384.642 189.587Z" fill="#CBCDDA"/>
<path d="M384.103 195.528C384.401 195.528 384.642 195.166 384.642 194.718C384.642 194.271 384.401 193.908 384.103 193.908C383.805 193.908 383.563 194.271 383.563 194.718C383.563 195.166 383.805 195.528 384.103 195.528Z" fill="#CBCDDA"/>
<path d="M377.627 192.828C377.925 192.828 378.167 192.465 378.167 192.018C378.167 191.57 377.925 191.207 377.627 191.207C377.329 191.207 377.088 191.57 377.088 192.018C377.088 192.465 377.329 192.828 377.627 192.828Z" fill="#CBCDDA"/>
<path d="M338.237 199.85C343.005 199.85 346.87 195.98 346.87 191.207C346.87 186.434 343.005 182.565 338.237 182.565C333.468 182.565 329.603 186.434 329.603 191.207C329.603 195.98 333.468 199.85 338.237 199.85Z" fill="#CBCDDA"/>
<path opacity="0.2" d="M344.712 191.748C344.712 193.467 344.03 195.115 342.815 196.331C341.601 197.546 339.954 198.229 338.237 198.229C336.519 198.229 334.872 197.546 333.658 196.331C332.444 195.115 331.761 193.467 331.761 191.748" fill="#FFA616"/>
<path opacity="0.2" d="M331.761 190.667C331.761 188.948 332.444 187.3 333.658 186.084C334.872 184.869 336.519 184.186 338.237 184.186C339.954 184.186 341.601 184.869 342.815 186.084C344.03 187.3 344.712 188.948 344.712 190.667" fill="#FFA616"/>
<path d="M334.999 189.047C335.297 189.047 335.539 188.684 335.539 188.237C335.539 187.789 335.297 187.426 334.999 187.426C334.701 187.426 334.459 187.789 334.459 188.237C334.459 188.684 334.701 189.047 334.999 189.047Z" fill="#CBCDDA"/>
<path d="M338.236 187.967C338.534 187.967 338.776 187.604 338.776 187.156C338.776 186.709 338.534 186.346 338.236 186.346C337.938 186.346 337.697 186.709 337.697 187.156C337.697 187.604 337.938 187.967 338.236 187.967Z" fill="#CBCDDA"/>
<path d="M338.236 194.988C338.534 194.988 338.776 194.626 338.776 194.178C338.776 193.731 338.534 193.368 338.236 193.368C337.938 193.368 337.697 193.731 337.697 194.178C337.697 194.626 337.938 194.988 338.236 194.988Z" fill="#CBCDDA"/>
<path d="M341.474 190.667C341.772 190.667 342.014 190.305 342.014 189.857C342.014 189.41 341.772 189.047 341.474 189.047C341.176 189.047 340.935 189.41 340.935 189.857C340.935 190.305 341.176 190.667 341.474 190.667Z" fill="#CBCDDA"/>
<path d="M340.935 196.609C341.233 196.609 341.474 196.246 341.474 195.799C341.474 195.351 341.233 194.988 340.935 194.988C340.636 194.988 340.395 195.351 340.395 195.799C340.395 196.246 340.636 196.609 340.935 196.609Z" fill="#CBCDDA"/>
<path d="M334.459 193.908C334.757 193.908 334.999 193.545 334.999 193.098C334.999 192.65 334.757 192.288 334.459 192.288C334.161 192.288 333.92 192.65 333.92 193.098C333.92 193.545 334.161 193.908 334.459 193.908Z" fill="#CBCDDA"/>
<path d="M357.662 203.63C362.43 203.63 366.296 199.761 366.296 194.988C366.296 190.215 362.43 186.346 357.662 186.346C352.894 186.346 349.029 190.215 349.029 194.988C349.029 199.761 352.894 203.63 357.662 203.63Z" fill="#CBCDDA"/>
<path opacity="0.2" d="M364.137 195.529C364.137 196.38 363.97 197.223 363.644 198.009C363.319 198.795 362.842 199.51 362.241 200.112C361.639 200.714 360.926 201.191 360.14 201.517C359.354 201.842 358.512 202.01 357.662 202.01C356.812 202.01 355.97 201.842 355.184 201.517C354.399 201.191 353.685 200.714 353.083 200.112C352.482 199.51 352.005 198.795 351.68 198.009C351.354 197.223 351.187 196.38 351.187 195.529" fill="#FFA616"/>
<path opacity="0.2" d="M351.187 194.448C351.187 193.597 351.354 192.754 351.68 191.968C352.005 191.181 352.482 190.467 353.083 189.865C353.685 189.263 354.399 188.786 355.184 188.46C355.97 188.134 356.812 187.967 357.662 187.967C358.512 187.967 359.354 188.134 360.14 188.46C360.926 188.786 361.639 189.263 362.241 189.865C362.842 190.467 363.319 191.181 363.644 191.968C363.97 192.754 364.137 193.597 364.137 194.448" fill="#FFA616"/>
<path d="M354.425 192.828C354.723 192.828 354.964 192.465 354.964 192.018C354.964 191.57 354.723 191.207 354.425 191.207C354.127 191.207 353.885 191.57 353.885 192.018C353.885 192.465 354.127 192.828 354.425 192.828Z" fill="#CBCDDA"/>
<path d="M357.662 191.748C357.96 191.748 358.202 191.385 358.202 190.937C358.202 190.49 357.96 190.127 357.662 190.127C357.364 190.127 357.122 190.49 357.122 190.937C357.122 191.385 357.364 191.748 357.662 191.748Z" fill="#CBCDDA"/>
<path d="M357.662 198.769C357.96 198.769 358.202 198.407 358.202 197.959C358.202 197.512 357.96 197.149 357.662 197.149C357.364 197.149 357.122 197.512 357.122 197.959C357.122 198.407 357.364 198.769 357.662 198.769Z" fill="#CBCDDA"/>
<path d="M360.9 194.448C361.198 194.448 361.439 194.085 361.439 193.638C361.439 193.191 361.198 192.828 360.9 192.828C360.602 192.828 360.36 193.191 360.36 193.638C360.36 194.085 360.602 194.448 360.9 194.448Z" fill="#CBCDDA"/>
<path d="M360.36 200.39C360.658 200.39 360.9 200.027 360.9 199.579C360.9 199.132 360.658 198.769 360.36 198.769C360.062 198.769 359.82 199.132 359.82 199.579C359.82 200.027 360.062 200.39 360.36 200.39Z" fill="#CBCDDA"/>
<path d="M353.885 197.689C354.183 197.689 354.424 197.326 354.424 196.879C354.424 196.431 354.183 196.069 353.885 196.069C353.587 196.069 353.345 196.431 353.345 196.879C353.345 197.326 353.587 197.689 353.885 197.689Z" fill="#CBCDDA"/>
<path d="M371.152 212.813C375.92 212.813 379.786 208.944 379.786 204.171C379.786 199.398 375.92 195.528 371.152 195.528C366.384 195.528 362.518 199.398 362.518 204.171C362.518 208.944 366.384 212.813 371.152 212.813Z" fill="#FF6584"/>
<path opacity="0.2" d="M377.627 204.711C377.627 206.43 376.945 208.078 375.731 209.294C374.516 210.51 372.869 211.192 371.152 211.192C369.435 211.192 367.788 210.51 366.573 209.294C365.359 208.078 364.677 206.43 364.677 204.711" fill="#FFA616"/>
<path opacity="0.2" d="M364.677 203.631C364.677 201.911 365.359 200.263 366.573 199.047C367.788 197.832 369.435 197.149 371.152 197.149C372.869 197.149 374.516 197.832 375.731 199.047C376.945 200.263 377.627 201.911 377.627 203.631" fill="#FFA616"/>
<path d="M367.914 202.01C368.212 202.01 368.454 201.647 368.454 201.2C368.454 200.752 368.212 200.39 367.914 200.39C367.616 200.39 367.375 200.752 367.375 201.2C367.375 201.647 367.616 202.01 367.914 202.01Z" fill="#FF6584"/>
<path d="M371.152 200.93C371.45 200.93 371.692 200.567 371.692 200.12C371.692 199.672 371.45 199.309 371.152 199.309C370.854 199.309 370.612 199.672 370.612 200.12C370.612 200.567 370.854 200.93 371.152 200.93Z" fill="#FF6584"/>
<path d="M371.152 207.952C371.45 207.952 371.692 207.589 371.692 207.141C371.692 206.694 371.45 206.331 371.152 206.331C370.854 206.331 370.612 206.694 370.612 207.141C370.612 207.589 370.854 207.952 371.152 207.952Z" fill="#FF6584"/>
<path d="M374.39 203.63C374.688 203.63 374.929 203.268 374.929 202.82C374.929 202.373 374.688 202.01 374.39 202.01C374.092 202.01 373.85 202.373 373.85 202.82C373.85 203.268 374.092 203.63 374.39 203.63Z" fill="#FF6584"/>
<path d="M373.85 209.572C374.148 209.572 374.39 209.209 374.39 208.762C374.39 208.314 374.148 207.952 373.85 207.952C373.552 207.952 373.311 208.314 373.311 208.762C373.311 209.209 373.552 209.572 373.85 209.572Z" fill="#FF6584"/>
<path d="M367.375 206.871C367.673 206.871 367.915 206.509 367.915 206.061C367.915 205.614 367.673 205.251 367.375 205.251C367.077 205.251 366.835 205.614 366.835 206.061C366.835 206.509 367.077 206.871 367.375 206.871Z" fill="#FF6584"/>
<path d="M260.125 173.513C261.389 173.513 262.413 172.488 262.413 171.222C262.413 169.957 261.389 168.932 260.125 168.932C258.861 168.932 257.836 169.957 257.836 171.222C257.836 172.488 258.861 173.513 260.125 173.513Z" fill="#3F3D56"/>
<path d="M322.329 254.369L267.369 239.112L269.474 231.284L324.434 246.542L322.329 254.369Z" fill="#428CD3"/>
<path d="M314.271 251.753C295.451 255.359 276.117 255.359 257.297 251.753V243.638C276.16 246.768 295.409 246.768 314.271 243.638V251.753Z" fill="#428CD3"/>
<path d="M320.129 227.409C301.308 231.016 281.975 231.016 263.154 227.409V219.294C282.017 222.424 301.266 222.424 320.129 219.294V227.409Z" fill="#428CD3"/>
<path d="M339.83 237.147C321.01 240.753 301.676 240.753 282.855 237.147V229.032C301.718 232.161 320.967 232.161 339.83 229.032V237.147Z" fill="#428CD3"/>
<path d="M344.623 246.343C325.802 249.95 306.468 249.95 287.648 246.343V238.228C306.511 241.358 325.76 241.358 344.623 238.228V246.343Z" fill="#428CD3"/>
<path d="M361.33 258.36L305.12 267.811L303.816 259.805L360.026 250.354L361.33 258.36Z" fill="#428CD3"/>
<path d="M352.934 259.401C337.35 270.645 319.786 278.845 301.164 283.57L297.829 276.197C316.288 271.023 333.776 262.858 349.599 252.027L352.934 259.401Z" fill="#428CD3"/>
<path d="M348.251 234.796C332.667 246.041 315.103 254.241 296.481 258.966L293.146 251.592C311.605 246.418 329.093 238.254 344.916 227.422L348.251 234.796Z" fill="#428CD3"/>
<path d="M370.155 235.286C354.571 246.531 337.007 254.731 318.385 259.456L315.049 252.082C333.509 246.908 350.997 238.744 366.82 227.913L370.155 235.286Z" fill="#428CD3"/>
<path d="M378.289 241.609C362.705 252.854 345.141 261.054 326.519 265.779L323.184 258.406C341.643 253.232 359.131 245.067 374.954 234.236L378.289 241.609Z" fill="#428CD3"/>
<path d="M310.177 225.776H307.479V228.477H310.177V225.776Z" fill="#00BF71"/>
<path d="M318.271 272.768H315.573V275.468H318.271V272.768Z" fill="#00BF71"/>
<path d="M275.103 225.776H272.405V228.477H275.103V225.776Z" fill="#00BF71"/>
<path d="M337.697 259.264H334.999V261.965H337.697V259.264Z" fill="#00BF71"/>
<path d="M339.316 243.6H336.618V246.301H339.316V243.6Z" fill="#00BF71"/>
<path d="M294.809 236.206L291.683 234.083L290.472 235.871L293.597 237.994L294.809 236.206Z" fill="#00BF71"/>
<path d="M326.645 242.147L323.52 240.025L322.308 241.813L325.434 243.935L326.645 242.147Z" fill="#00BF71"/>
<path d="M287.794 252.41L284.669 250.287L283.457 252.075L286.583 254.198L287.794 252.41Z" fill="#00BF71"/>
<path d="M307.582 252.253L309.703 249.124L307.916 247.911L305.796 251.04L307.582 252.253Z" fill="#00BF71"/>
<path d="M322.151 256.034L324.272 252.905L322.486 251.692L320.365 254.821L322.151 256.034Z" fill="#00BF71"/>
<path d="M361.006 243.07L363.127 239.941L361.341 238.728L359.22 241.857L361.006 243.07Z" fill="#00BF71"/>
<path d="M476.192 335.61H0V337H476.192V335.61Z" fill="#3F3D56"/>
</svg>
