<svg width="333" height="305" viewBox="0 0 333 305" fill="none" xmlns="http://www.w3.org/2000/svg">
<path d="M101.853 122.392C101.885 114.363 95.3576 107.795 87.6956 107.795H16.5971C9.05617 107.795 2.54086 114.254 2.45257 122.156C2.42522 124.401 2.89597 126.623 3.82772 128.645C4.75948 130.668 6.12677 132.436 7.82184 133.81C8.25635 134.15 8.59828 134.603 8.81346 135.124C9.02864 135.645 9.10953 136.216 9.04805 136.78C8.96557 137.42 8.92421 138.066 8.92426 138.712V190.245C8.92426 192.142 9.28082 194.02 9.97355 195.773C10.6663 197.525 11.6816 199.117 12.9616 200.459C14.2416 201.8 15.7612 202.864 17.4336 203.59C19.1061 204.316 20.8985 204.689 22.7087 204.689H81.1338C84.7897 204.689 88.2958 203.168 90.8809 200.459C93.466 197.75 94.9182 194.076 94.9182 190.245V138.712C94.9183 138.147 94.8869 137.582 94.8241 137.02C94.7685 136.464 94.8558 135.903 95.077 135.394C95.2982 134.885 95.6452 134.448 96.0821 134.127C97.8611 132.789 99.3117 131.027 100.315 128.987C101.318 126.947 101.845 124.687 101.853 122.392Z" fill="#CBCBCB"/>
<path d="M98.7741 120.978C98.4196 118.182 97.1019 115.619 95.0692 113.771C93.0365 111.923 90.4292 110.918 87.7382 110.944H16.5758C14.0602 110.921 11.6121 111.797 9.63588 113.428C7.65966 115.06 6.27351 117.348 5.70638 119.917C5.22078 122.277 5.46279 124.738 6.39752 126.945C7.33225 129.153 8.91145 130.992 10.9076 132.198C11.4839 132.543 11.9342 133.08 12.1878 133.723C12.4414 134.365 12.4839 135.078 12.3085 135.749C12.056 136.715 11.9285 137.713 11.9294 138.714V190.243C11.9297 192.876 12.8076 195.426 14.4114 197.454C16.0152 199.481 18.2443 200.858 20.7137 201.347C21.3724 201.475 22.041 201.54 22.711 201.54H81.1361C82.1224 201.542 83.1043 201.4 84.0534 201.119C86.3152 200.452 88.307 199.029 89.7258 197.066C91.1446 195.104 91.9127 192.709 91.9131 190.247V138.709C91.9132 137.772 91.8014 136.837 91.5802 135.929C91.5199 135.677 91.4889 135.418 91.4877 135.158C91.4882 134.589 91.6364 134.03 91.9165 133.542C92.1967 133.054 92.5982 132.654 93.0782 132.387L93.0828 132.382C95.019 131.305 96.5988 129.639 97.6146 127.604C98.6304 125.568 99.0347 123.259 98.7741 120.978V120.978Z" fill="#428CD3"/>
<path opacity="0.2" d="M91.9131 143.646V138.802H84.0534V110.945H79.43V138.802H54.6952V110.945H50.0719V138.802H25.3371V110.945H20.7137V138.802H11.9294V143.646H20.7137V158.18H11.9294V163.025H20.7137V177.559H11.9294V182.404H20.7137V201.347C21.3724 201.475 22.041 201.54 22.711 201.54H25.337V182.404H50.0719V201.54H54.6952V182.404H79.43V201.54H81.1361C82.1224 201.542 83.1042 201.4 84.0534 201.119V182.404H91.913V177.559H84.0534V163.025H91.9131V158.18H84.0534V143.646H91.9131ZM25.3371 143.646H50.0719V158.18H25.3371V143.646ZM25.3371 177.559V163.025H50.0719V177.559H25.3371ZM79.4301 177.559H54.6953V163.025H79.4301V177.559ZM79.4301 158.18H54.6953V143.646H79.4301V158.18Z" fill="black"/>
<path d="M101.529 0C101.529 6.79472 100.252 13.5229 97.7706 19.8004C95.2892 26.0779 91.6521 31.7818 87.0671 36.5864C82.482 41.391 77.0388 45.2022 71.0481 47.8025C65.0574 50.4027 58.6366 51.741 52.1524 51.741C45.6681 51.741 39.2474 50.4027 33.2567 47.8025C27.266 45.2022 21.8228 41.391 17.2377 36.5864C12.6527 31.7818 9.01561 26.0779 6.53419 19.8004C4.05277 13.5229 2.7756 6.79472 2.7756 0H101.529Z" fill="#428CD3"/>
<path d="M20.8903 9.18482C20.8903 10.5375 20.4324 11.6341 19.8677 11.6341C19.3029 11.6341 18.8451 10.5375 18.8451 9.18482C18.9071 8.2695 19.2683 7.40453 19.8677 6.73553C20.467 7.40453 20.8282 8.2695 20.8903 9.18482V9.18482Z" fill="#CBCBCB"/>
<path d="M72.6043 17.7573C72.6043 19.11 72.1465 20.2066 71.5817 20.2066C71.017 20.2066 70.5591 19.11 70.5591 17.7573C70.6212 16.842 70.9823 15.977 71.5817 15.308C72.1811 15.977 72.5423 16.842 72.6043 17.7573Z" fill="#CBCBCB"/>
<path d="M34.6222 12.8588C34.6222 14.2115 34.1644 15.3081 33.5996 15.3081C33.0349 15.3081 32.577 14.2115 32.577 12.8588C32.6391 11.9434 33.0002 11.0785 33.5996 10.4095C34.199 11.0785 34.5602 11.9434 34.6222 12.8588Z" fill="#CBCBCB"/>
<path d="M55.0741 32.1467C55.0741 33.4994 54.6163 34.596 54.0515 34.596C53.4868 34.596 53.0289 33.4994 53.0289 32.1467C53.091 31.2314 53.4521 30.3664 54.0515 29.6974C54.6509 30.3664 55.012 31.2314 55.0741 32.1467V32.1467Z" fill="#CBCBCB"/>
<path d="M33.1614 29.6976C33.1614 31.0503 32.7035 32.1468 32.1388 32.1468C31.574 32.1468 31.1162 31.0503 31.1162 29.6976C31.1783 28.7822 31.5394 27.9173 32.1388 27.2483C32.7382 27.9173 33.0993 28.7822 33.1614 29.6976V29.6976Z" fill="#CBCBCB"/>
<path d="M84.2912 6.73547C84.2912 8.08818 83.8333 9.18476 83.2686 9.18476C82.7038 9.18476 82.246 8.08818 82.246 6.73547C82.308 5.82015 82.6692 4.95518 83.2686 4.28619C83.868 4.95518 84.2291 5.82015 84.2912 6.73547Z" fill="#CBCBCB"/>
<path d="M65.5922 37.0453C65.5922 38.398 65.1344 39.4946 64.5696 39.4946C64.0049 39.4946 63.5471 38.398 63.5471 37.0453C63.6091 36.13 63.9703 35.2651 64.5696 34.5961C65.169 35.2651 65.5302 36.13 65.5922 37.0453V37.0453Z" fill="#CBCBCB"/>
<path d="M52.1524 54.6495C38.3255 54.6331 25.0695 48.8702 15.2924 38.6249C5.51529 28.3797 0.0156508 14.4889 0 0H5.5512C5.5512 6.41277 6.75657 12.7628 9.0985 18.6874C11.4404 24.612 14.873 29.9953 19.2004 34.5298C23.5277 39.0643 28.6649 42.6613 34.3189 45.1153C39.9728 47.5694 46.0326 48.8325 52.1524 48.8325C58.2721 48.8325 64.332 47.5694 69.9859 45.1153C75.6398 42.6613 80.7771 39.0643 85.1044 34.5298C89.4317 29.9953 92.8643 24.612 95.2062 18.6874C97.5482 12.7628 98.7536 6.41277 98.7536 0H104.305C104.289 14.4889 98.7895 28.3797 89.0124 38.6249C79.2353 48.8701 65.9793 54.6331 52.1524 54.6495Z" fill="#CBCBCB"/>
<path d="M172.28 18.7615H155.936V35.888H172.28V18.7615Z" fill="#CBCBCB"/>
<path d="M332.45 26.4684H200.882V28.1811H332.45V26.4684Z" fill="#CBCBCB"/>
<path d="M172.28 147.679H155.936V164.806H172.28V147.679Z" fill="#CBCBCB"/>
<path d="M332.45 155.386H200.882V157.099H332.45V155.386Z" fill="#CBCBCB"/>
<path d="M172.28 275.701H155.936V292.827H172.28V275.701Z" fill="#CBCBCB"/>
<path d="M332.45 283.408H200.882V285.12H332.45V283.408Z" fill="#CBCBCB"/>
<path d="M51.6026 282.093L20.662 278.736C20.8997 277.014 20.7172 275.257 20.1314 273.63C19.5457 272.002 18.5758 270.556 17.3124 269.428C16.0489 268.3 14.5332 267.525 12.9067 267.177C11.2802 266.829 9.59603 266.918 8.01148 267.437C6.42693 267.956 4.99369 268.887 3.84565 270.143C2.6976 271.4 1.87219 272.941 1.44651 274.622C1.02083 276.304 1.00878 278.071 1.41147 279.758C1.81416 281.446 2.61845 282.999 3.74923 284.273C2.60034 285.573 1.79111 287.162 1.39983 288.886C1.00854 290.61 1.04843 292.411 1.51564 294.114C1.98286 295.817 2.86157 297.365 4.06682 298.608C5.27206 299.851 6.76303 300.747 8.39553 301.209C10.028 301.672 11.7468 301.685 13.3856 301.248C15.0244 300.81 16.5277 299.937 17.7503 298.713C18.9728 297.489 19.8731 295.954 20.3641 294.259C20.8551 292.563 20.9202 290.763 20.5531 289.033L51.6026 286.042V282.093Z" fill="#CCCCCC"/>
<path d="M83.066 304.376C95.2294 307.51 107.483 298.47 108.117 285.362C108.134 284.998 108.143 284.632 108.143 284.264C108.143 283.896 108.135 283.53 108.117 283.166C107.483 270.058 95.2294 261.017 83.066 264.152L41.8023 274.784C40.6135 274.783 39.4362 275.027 38.3377 275.503C37.2391 275.979 36.2408 276.677 35.3998 277.558C34.5589 278.438 33.8918 279.483 33.4366 280.634C32.9814 281.785 32.7471 283.018 32.7471 284.264C32.7471 285.51 32.9814 286.743 33.4366 287.894C33.8918 289.044 34.5589 290.09 35.3998 290.97C36.2408 291.851 37.2391 292.549 38.3377 293.025C39.4362 293.5 40.6135 293.745 41.8023 293.744L83.066 304.376Z" fill="#428CD3"/>
</svg>
