<svg width="441" height="337" viewBox="0 0 441 337" fill="none" xmlns="http://www.w3.org/2000/svg">
<path d="M226.815 336.963C319.497 336.963 394.631 261.755 394.631 168.982C394.631 76.2079 319.497 1 226.815 1C134.134 1 59 76.2079 59 168.982C59 261.755 134.134 336.963 226.815 336.963Z" fill="#2DC19F"/>
<path d="M372 254.5L227 180V1C272 1 330.5 24.5 364 72C397.5 119.5 409 184.5 372 254.5Z" fill="#D73A33"/>
<path d="M227 0.999975C275.684 -2.3071 335.976 21.9302 365.5 73L227 180V0.999975Z" fill="#F3B530"/>
<path d="M355 113.839C227.104 -101.643 -46.7005 155.141 169.461 297C6.43939 161.427 224.402 -55.8523 355 113.839Z" fill="#060606" fill-opacity="0.25"/>
<path d="M255.404 54.3691C255.249 56.5111 254.456 58.1973 253.025 59.4277C251.604 60.6582 249.726 61.2734 247.393 61.2734C244.84 61.2734 242.831 60.4167 241.363 58.7031C239.905 56.9805 239.176 54.6198 239.176 51.6211V50.4043C239.176 48.4902 239.513 46.804 240.188 45.3457C240.862 43.8874 241.824 42.7708 243.072 41.9961C244.33 41.2122 245.788 40.8203 247.447 40.8203C249.744 40.8203 251.594 41.4355 252.998 42.666C254.402 43.8965 255.213 45.6237 255.432 47.8477H251.33C251.23 46.5625 250.87 45.6328 250.25 45.0586C249.639 44.4753 248.705 44.1836 247.447 44.1836C246.08 44.1836 245.055 44.6758 244.371 45.6602C243.697 46.6354 243.35 48.153 243.332 50.2129V51.7168C243.332 53.8678 243.656 55.4401 244.303 56.4336C244.959 57.4271 245.989 57.9238 247.393 57.9238C248.66 57.9238 249.603 57.6367 250.223 57.0625C250.852 56.4792 251.212 55.5814 251.303 54.3691H255.404ZM269.336 56.8984H262.145L260.777 61H256.416L263.826 41.0938H267.627L275.078 61H270.717L269.336 56.8984ZM263.252 53.5762H268.229L265.727 46.125L263.252 53.5762ZM284.307 53.7129H281.039V61H276.938V41.0938H284.334C286.686 41.0938 288.499 41.6178 289.775 42.666C291.051 43.7142 291.689 45.1953 291.689 47.1094C291.689 48.4674 291.393 49.6022 290.801 50.5137C290.217 51.416 289.329 52.1361 288.135 52.6738L292.441 60.8086V61H288.039L284.307 53.7129ZM281.039 50.3906H284.348C285.378 50.3906 286.175 50.1309 286.74 49.6113C287.305 49.0827 287.588 48.3581 287.588 47.4375C287.588 46.4987 287.319 45.7604 286.781 45.2227C286.253 44.6849 285.437 44.416 284.334 44.416H281.039V50.3906ZM294.82 61V41.0938H301.793C304.208 41.0938 306.04 41.5586 307.289 42.4883C308.538 43.4089 309.162 44.7624 309.162 46.5488C309.162 47.5241 308.911 48.3854 308.41 49.1328C307.909 49.8711 307.212 50.4134 306.318 50.7598C307.339 51.015 308.141 51.5299 308.725 52.3047C309.317 53.0794 309.613 54.0273 309.613 55.1484C309.613 57.0625 309.003 58.5117 307.781 59.4961C306.56 60.4805 304.819 60.9818 302.559 61H294.82ZM298.922 52.332V57.7051H302.436C303.402 57.7051 304.154 57.4772 304.691 57.0215C305.238 56.5566 305.512 55.9186 305.512 55.1074C305.512 53.2845 304.568 52.3594 302.682 52.332H298.922ZM298.922 49.4336H301.957C304.026 49.3971 305.061 48.5723 305.061 46.959C305.061 46.0566 304.796 45.4095 304.268 45.0176C303.748 44.6165 302.923 44.416 301.793 44.416H298.922V49.4336ZM323.025 55.7773C323.025 55.0026 322.752 54.4102 322.205 54C321.658 53.5807 320.674 53.1432 319.252 52.6875C317.83 52.2227 316.704 51.7669 315.875 51.3203C313.615 50.099 312.484 48.4538 312.484 46.3848C312.484 45.3092 312.785 44.3522 313.387 43.5137C313.997 42.666 314.868 42.0052 315.998 41.5312C317.137 41.0573 318.413 40.8203 319.826 40.8203C321.248 40.8203 322.515 41.0801 323.627 41.5996C324.739 42.11 325.6 42.8346 326.211 43.7734C326.831 44.7122 327.141 45.7786 327.141 46.9727H323.039C323.039 46.0612 322.752 45.3548 322.178 44.8535C321.604 44.3431 320.797 44.0879 319.758 44.0879C318.755 44.0879 317.976 44.3021 317.42 44.7305C316.864 45.1497 316.586 45.7057 316.586 46.3984C316.586 47.0456 316.91 47.5879 317.557 48.0254C318.213 48.4629 319.174 48.873 320.441 49.2559C322.775 49.9577 324.475 50.8281 325.541 51.8672C326.607 52.9062 327.141 54.2005 327.141 55.75C327.141 57.4727 326.489 58.8262 325.186 59.8105C323.882 60.7858 322.128 61.2734 319.922 61.2734C318.391 61.2734 316.996 60.9954 315.738 60.4395C314.48 59.8743 313.519 59.1042 312.854 58.1289C312.197 57.1536 311.869 56.0234 311.869 54.7383H315.984C315.984 56.9349 317.297 58.0332 319.922 58.0332C320.897 58.0332 321.658 57.8372 322.205 57.4453C322.752 57.0443 323.025 56.4883 323.025 55.7773Z" fill="white" fill-opacity="0.57"/>
<path d="M261.879 182.986V190H257.777V170.094H265.543C267.038 170.094 268.35 170.367 269.48 170.914C270.62 171.461 271.495 172.24 272.105 173.252C272.716 174.255 273.021 175.398 273.021 176.684C273.021 178.634 272.352 180.174 271.012 181.305C269.681 182.426 267.835 182.986 265.475 182.986H261.879ZM261.879 179.664H265.543C266.628 179.664 267.452 179.409 268.018 178.898C268.592 178.388 268.879 177.659 268.879 176.711C268.879 175.736 268.592 174.947 268.018 174.346C267.443 173.744 266.65 173.434 265.639 173.416H261.879V179.664ZM283.221 182.713H279.953V190H275.852V170.094H283.248C285.6 170.094 287.413 170.618 288.689 171.666C289.965 172.714 290.604 174.195 290.604 176.109C290.604 177.467 290.307 178.602 289.715 179.514C289.132 180.416 288.243 181.136 287.049 181.674L291.355 189.809V190H286.953L283.221 182.713ZM279.953 179.391H283.262C284.292 179.391 285.089 179.131 285.654 178.611C286.219 178.083 286.502 177.358 286.502 176.438C286.502 175.499 286.233 174.76 285.695 174.223C285.167 173.685 284.351 173.416 283.248 173.416H279.953V179.391ZM310.086 180.498C310.086 182.458 309.74 184.176 309.047 185.652C308.354 187.129 307.361 188.268 306.066 189.07C304.781 189.872 303.305 190.273 301.637 190.273C299.987 190.273 298.515 189.877 297.221 189.084C295.926 188.291 294.924 187.161 294.213 185.693C293.502 184.217 293.142 182.521 293.133 180.607V179.623C293.133 177.663 293.484 175.941 294.186 174.455C294.896 172.96 295.895 171.816 297.18 171.023C298.474 170.221 299.951 169.82 301.609 169.82C303.268 169.82 304.74 170.221 306.025 171.023C307.32 171.816 308.318 172.96 309.02 174.455C309.73 175.941 310.086 177.659 310.086 179.609V180.498ZM305.93 179.596C305.93 177.508 305.556 175.923 304.809 174.838C304.061 173.753 302.995 173.211 301.609 173.211C300.233 173.211 299.171 173.749 298.424 174.824C297.676 175.891 297.298 177.458 297.289 179.527V180.498C297.289 182.531 297.663 184.107 298.41 185.229C299.158 186.35 300.233 186.91 301.637 186.91C303.013 186.91 304.07 186.372 304.809 185.297C305.547 184.212 305.921 182.635 305.93 180.566V179.596ZM326.875 173.416H320.777V190H316.676V173.416H310.66V170.094H326.875V173.416ZM341.203 181.373H333.328V186.705H342.57V190H329.227V170.094H342.543V173.416H333.328V178.16H341.203V181.373ZM349.338 190H345.236V170.094H349.338V190ZM369.34 190H365.238L357.254 176.902V190H353.152V170.094H357.254L365.252 183.219V170.094H369.34V190Z" fill="white" fill-opacity="0.57"/>
<path d="M189.076 259H184.975V250.469H176.977V259H172.875V239.094H176.977V247.16H184.975V239.094H189.076V259ZM204.648 250.373H196.773V255.705H206.016V259H192.672V239.094H205.988V242.416H196.773V247.16H204.648V250.373ZM219.66 254.898H212.469L211.102 259H206.74L214.15 239.094H217.951L225.402 259H221.041L219.66 254.898ZM213.576 251.576H218.553L216.051 244.125L213.576 251.576ZM231.363 255.705H240.072V259H227.262V239.094H231.363V255.705ZM254.605 242.416H248.508V259H244.406V242.416H238.391V239.094H254.605V242.416ZM273.158 259H269.057V250.469H261.059V259H256.957V239.094H261.059V247.16H269.057V239.094H273.158V259ZM283.234 248.062L287.377 239.094H291.861L285.326 251.781V259H281.156V251.781L274.621 239.094H279.119L283.234 248.062ZM213.125 283.865H205.25V292H201.148V272.094H214.109V275.416H205.25V280.557H213.125V283.865ZM225.102 287.898H217.91L216.543 292H212.182L219.592 272.094H223.393L230.844 292H226.482L225.102 287.898ZM219.018 284.576H223.994L221.492 277.125L219.018 284.576ZM246.047 275.416H239.949V292H235.848V275.416H229.832V272.094H246.047V275.416ZM258.502 286.777C258.502 286.003 258.229 285.41 257.682 285C257.135 284.581 256.15 284.143 254.729 283.688C253.307 283.223 252.181 282.767 251.352 282.32C249.091 281.099 247.961 279.454 247.961 277.385C247.961 276.309 248.262 275.352 248.863 274.514C249.474 273.666 250.344 273.005 251.475 272.531C252.614 272.057 253.89 271.82 255.303 271.82C256.725 271.82 257.992 272.08 259.104 272.6C260.215 273.11 261.077 273.835 261.688 274.773C262.307 275.712 262.617 276.779 262.617 277.973H258.516C258.516 277.061 258.229 276.355 257.654 275.854C257.08 275.343 256.273 275.088 255.234 275.088C254.232 275.088 253.452 275.302 252.896 275.73C252.34 276.15 252.062 276.706 252.062 277.398C252.062 278.046 252.386 278.588 253.033 279.025C253.689 279.463 254.651 279.873 255.918 280.256C258.251 280.958 259.951 281.828 261.018 282.867C262.084 283.906 262.617 285.201 262.617 286.75C262.617 288.473 261.965 289.826 260.662 290.811C259.359 291.786 257.604 292.273 255.398 292.273C253.867 292.273 252.473 291.995 251.215 291.439C249.957 290.874 248.995 290.104 248.33 289.129C247.674 288.154 247.346 287.023 247.346 285.738H251.461C251.461 287.935 252.773 289.033 255.398 289.033C256.374 289.033 257.135 288.837 257.682 288.445C258.229 288.044 258.502 287.488 258.502 286.777Z" fill="white" fill-opacity="0.57"/>
<path d="M15.9841 299.028L20.1905 147.599C15.1429 136.662 1.68264 130.774 0.84127 118.996C-0.000102744 107.218 0 46.6467 0 46.6467C3.28534 43.5192 5.12759 44.3891 8.4127 46.6467V101.329C11.0407 102.96 12.5143 103.07 15.1429 101.329V46.6467C18.7206 42.4534 20.4651 43.8506 23.5556 46.6467C23.836 64.5938 23.3162 100.408 23.5556 101.329C24.1378 103.57 29.3202 103.554 30.2857 101.329V48.3292C33.5706 44.2359 35.4135 44.5917 38.6984 48.3292V101.329C41.3271 103.41 42.8001 103.109 45.4286 101.329V48.3292C49.3241 45.424 50.617 46.5532 53 48.3292V118.996C45.4286 137.504 38.6984 134.98 32.8095 147.599C34.9978 212.154 34.5396 248.329 35.3333 299.028C30.3541 307.008 22.2542 308.878 17.0863 300.959C16.6778 300.398 16.3076 299.755 15.9841 299.028Z" fill="#C4C4C4"/>
<path d="M33.6508 298.905C31.127 302.269 24.3968 306.476 15.9841 299.746C21.9755 311.017 33.3934 305.867 37.0159 298.063L33.6508 150.841C35.0896 139.905 48.7937 135.699 53 119.714V48.2065C51.6708 46.7829 51.3175 46.5238 49.6349 46.5238V119.714C47.7682 125.113 36.3012 136.761 31.127 142.429C25.9528 148.097 33.6508 298.905 33.6508 298.905Z" fill="url(#paint0_linear)"/>
<path d="M38.6985 48.311V101.91C38.0254 102.758 36.6794 103.606 36.0064 101.909L35.6699 74.3355L35.3334 45.6825C36.1746 45.6825 37.2524 46.5536 38.6985 48.311Z" fill="url(#paint1_linear)"/>
<path d="M23.5556 46.6634V100.227C22.8826 101.075 21.5365 101.924 20.8635 100.226L20.527 72.6527L20.1905 44.2308C21.873 44.8412 22.7143 45.5702 23.5556 46.6634Z" fill="url(#paint2_linear)"/>
<path d="M8.41269 46.6413V101.881C7.73967 102.754 6.39364 103.627 5.72062 101.88L5.38412 73.4956L5.04761 44.8413C5.88888 44.8413 8.41269 46.5238 8.41269 46.6413Z" fill="url(#paint3_linear)"/>
<path fill-rule="evenodd" clip-rule="evenodd" d="M432.283 305.007C428.818 305.411 425.157 303.47 422.622 298.824C425.987 302.188 429.265 304.322 432.283 305.007Z" fill="#CBCBCB"/>
<path d="M440.033 298.824C434.526 198.456 431.849 145.207 433.878 44C417.259 56.662 410.752 70.1155 407.586 112.85C404.421 155.584 406.971 161.915 406.971 161.915C408.554 174.577 423.59 181.7 427.371 191.988C424.504 238.221 421.308 264.16 422.622 298.824C425.987 302.188 429.265 304.322 432.283 305.007C435.31 304.655 438.188 302.514 440.033 298.824Z" fill="#CBCBCB"/>
<path d="M436.486 44H432.617C431.661 144.641 432.893 200.308 437.776 298.422C437.776 301.592 435.294 303.355 431.328 304.896C436.044 306.137 440.163 302.777 441 297.629L436.486 44Z" fill="url(#paint4_linear)"/>
<defs>
<linearGradient id="paint0_linear" x1="34.4921" y1="46.5238" x2="34.4921" y2="306.278" gradientUnits="userSpaceOnUse">
<stop stop-color="#8B8B8B"/>
<stop offset="0.607292" stop-color="#363636" stop-opacity="0.267708"/>
<stop offset="0.919792" stop-color="#2B2A2A" stop-opacity="0"/>
</linearGradient>
<linearGradient id="paint1_linear" x1="37.0159" y1="45.6825" x2="37.0159" y2="102.889" gradientUnits="userSpaceOnUse">
<stop offset="0.732292" stop-color="#848484"/>
<stop offset="1" stop-color="#5F5E5E" stop-opacity="0"/>
</linearGradient>
<linearGradient id="paint2_linear" x1="21.873" y1="44" x2="21.873" y2="101.206" gradientUnits="userSpaceOnUse">
<stop offset="0.732292" stop-color="#848484"/>
<stop offset="1" stop-color="#5F5E5E" stop-opacity="0"/>
</linearGradient>
<linearGradient id="paint3_linear" x1="6.73015" y1="44" x2="6.73015" y2="102.889" gradientUnits="userSpaceOnUse">
<stop offset="0.732292" stop-color="#848484"/>
<stop offset="1" stop-color="#5F5E5E" stop-opacity="0"/>
</linearGradient>
<linearGradient id="paint4_linear" x1="432.295" y1="44" x2="432.295" y2="305.155" gradientUnits="userSpaceOnUse">
<stop stop-color="#8B8B8B"/>
<stop offset="1" stop-color="#545454" stop-opacity="0.6"/>
</linearGradient>
</defs>
</svg>
