<svg width="302" height="255" viewBox="0 0 302 255" fill="none" xmlns="http://www.w3.org/2000/svg">
<path d="M92.4358 102.327C92.4649 95.6147 86.5409 90.124 79.5872 90.124H15.0625C8.21884 90.124 2.30594 95.5239 2.22582 102.13C2.20099 104.008 2.62821 105.865 3.47382 107.556C4.31942 109.247 5.56029 110.725 7.09864 111.874C7.49298 112.158 7.80329 112.537 7.99857 112.972C8.19386 113.408 8.26727 113.885 8.21147 114.357C8.13662 114.892 8.09909 115.432 8.09913 115.972V159.057C8.09913 160.643 8.42272 162.214 9.0514 163.679C9.68009 165.144 10.6016 166.475 11.7632 167.597C12.9249 168.718 14.304 169.608 15.8217 170.215C17.3395 170.821 18.9663 171.134 20.6091 171.134H73.6322C76.9501 171.134 80.132 169.861 82.4781 167.597C84.8241 165.332 86.1421 162.26 86.1421 159.057V115.972C86.1422 115.5 86.1137 115.027 86.0567 114.558C86.0062 114.093 86.0855 113.624 86.2862 113.198C86.487 112.773 86.8019 112.407 87.1983 112.139C88.8129 111.02 90.1294 109.547 91.0399 107.842C91.9503 106.136 92.4287 104.246 92.4358 102.327Z" fill="#CBCBCB"/>
<path d="M89.6415 101.145C89.3197 98.8084 88.1238 96.6655 86.2791 95.1204C84.4344 93.5754 82.0681 92.7347 79.6259 92.7569H15.0433C12.7602 92.7372 10.5385 93.4697 8.74496 94.8336C6.95146 96.1975 5.69347 98.1111 5.17878 100.258C4.73808 102.232 4.95771 104.29 5.80602 106.135C6.65432 107.98 8.08751 109.518 9.89912 110.526C10.4221 110.815 10.8308 111.263 11.061 111.801C11.2911 112.338 11.3297 112.935 11.1705 113.495C10.9413 114.303 10.8256 115.137 10.8264 115.974V159.055C10.8267 161.257 11.6234 163.389 13.079 165.084C14.5345 166.779 16.5575 167.931 18.7986 168.339C19.3963 168.447 20.0031 168.501 20.6112 168.501H73.6343C74.5294 168.502 75.4205 168.384 76.2819 168.149C78.3345 167.591 80.1421 166.401 81.4298 164.761C82.7174 163.12 83.4144 161.118 83.4148 159.059V115.97C83.4149 115.186 83.3135 114.405 83.1127 113.645C83.058 113.435 83.0298 113.218 83.0288 113.001C83.0292 112.525 83.1637 112.058 83.418 111.65C83.6722 111.242 84.0366 110.908 84.4722 110.684L84.4764 110.68C86.2335 109.78 87.6673 108.387 88.5892 106.685C89.5111 104.984 89.8779 103.052 89.6415 101.145V101.145Z" fill="#428CD3"/>
<path opacity="0.2" d="M83.4147 120.098V116.047H76.2818V92.7569H72.0859V116.047H49.6381V92.7569H45.4422V116.047H22.9944V92.7569H18.7985V116.047H10.8264V120.098H18.7985V132.249H10.8264V136.3H18.7985V148.451H10.8264V152.502H18.7985V168.339C19.3963 168.447 20.003 168.501 20.6111 168.501H22.9943V152.502H45.4422V168.501H49.6381V152.502H72.0859V168.501H73.6342C74.5294 168.502 75.4204 168.384 76.2818 168.149V152.502H83.4147V148.451H76.2818V136.3H83.4147V132.249H76.2818V120.098H83.4147ZM22.9944 120.098H45.4422V132.249H22.9944V120.098ZM22.9944 148.451V136.3H45.4422V148.451H22.9944ZM72.086 148.451H49.6381V136.3H72.086V148.451ZM72.086 132.249H49.6381V120.098H72.086V132.249Z" fill="black"/>
<path d="M92.1416 0C92.1416 5.68084 90.9825 11.306 88.7305 16.5544C86.4786 21.8029 83.1778 26.5717 79.0166 30.5886C74.8555 34.6056 69.9156 37.792 64.4788 39.966C59.042 42.14 53.2149 43.2589 47.3302 43.2589C41.4455 43.2589 35.6184 42.14 30.1816 39.966C24.7448 37.792 19.8049 34.6056 15.6437 30.5886C11.4826 26.5717 8.18182 21.8029 5.92984 16.5544C3.67785 11.306 2.51877 5.68084 2.51877 0H92.1416Z" fill="#428CD3"/>
<path d="M18.9586 7.67895C18.9586 8.8098 18.5431 9.72653 18.0306 9.72653C17.5181 9.72653 17.1026 8.8098 17.1026 7.67895C17.159 6.91374 17.4867 6.19062 18.0306 5.63135C18.5745 6.19062 18.9023 6.91374 18.9586 7.67895V7.67895Z" fill="#CBCBCB"/>
<path d="M65.8912 14.8462C65.8912 15.977 65.4757 16.8938 64.9632 16.8938C64.4507 16.8938 64.0352 15.977 64.0352 14.8462C64.0916 14.081 64.4193 13.3579 64.9632 12.7986C65.5071 13.3579 65.8349 14.081 65.8912 14.8462Z" fill="#CBCBCB"/>
<path d="M31.4209 10.7505C31.4209 11.8814 31.0055 12.7981 30.493 12.7981C29.9805 12.7981 29.565 11.8814 29.565 10.7505C29.6213 9.98532 29.949 9.26222 30.493 8.70294C31.0369 9.26222 31.3646 9.98532 31.4209 10.7505Z" fill="#CBCBCB"/>
<path d="M49.9818 26.8766C49.9818 28.0075 49.5663 28.9242 49.0538 28.9242C48.5413 28.9242 48.1259 28.0075 48.1259 26.8766C48.1822 26.1114 48.5099 25.3883 49.0538 24.829C49.5977 25.3883 49.9255 26.1114 49.9818 26.8766V26.8766Z" fill="#CBCBCB"/>
<path d="M30.0951 24.829C30.0951 25.9598 29.6796 26.8765 29.1671 26.8765C28.6546 26.8765 28.2392 25.9598 28.2392 24.829C28.2955 24.0638 28.6232 23.3406 29.1671 22.7814C29.7111 23.3406 30.0388 24.0638 30.0951 24.829V24.829Z" fill="#CBCBCB"/>
<path d="M76.4975 5.63108C76.4975 6.76194 76.082 7.67868 75.5695 7.67868C75.057 7.67868 74.6415 6.76194 74.6415 5.63108C74.6978 4.86588 75.0255 4.14277 75.5695 3.5835C76.1134 4.14277 76.4411 4.86588 76.4975 5.63108Z" fill="#CBCBCB"/>
<path d="M59.5274 30.9721C59.5274 32.103 59.1119 33.0197 58.5994 33.0197C58.0869 33.0197 57.6715 32.103 57.6715 30.9721C57.7278 30.2069 58.0555 29.4838 58.5994 28.9246C59.1434 29.4838 59.4711 30.2069 59.5274 30.9721V30.9721Z" fill="#CBCBCB"/>
<path d="M47.3304 45.6906C34.782 45.6769 22.7515 40.8587 13.8784 32.293C5.00534 23.7273 0.0142037 12.1137 0 0H5.03793C5.03793 5.3615 6.13186 10.6705 8.25726 15.6239C10.3826 20.5773 13.4979 25.078 17.4251 28.8692C21.3523 32.6603 26.0146 35.6676 31.1457 37.7194C36.2769 39.7711 41.7765 40.8272 47.3304 40.8272C52.8843 40.8272 58.3838 39.7711 63.515 37.7194C68.6461 35.6676 73.3084 32.6603 77.2356 28.8692C81.1629 25.078 84.2781 20.5773 86.4035 15.6239C88.5289 10.6705 89.6228 5.3615 89.6228 0H94.6607C94.6465 12.1137 89.6554 23.7273 80.7823 32.293C71.9092 40.8586 59.8788 45.6769 47.3304 45.6906Z" fill="#CBCBCB"/>
<path d="M156.351 15.6859H141.518V30.0047H156.351V15.6859Z" fill="#CBCBCB"/>
<path d="M301.712 22.1293H182.308V23.5612H301.712V22.1293Z" fill="#CBCBCB"/>
<path d="M156.351 123.47H141.518V137.788H156.351V123.47Z" fill="#CBCBCB"/>
<path d="M301.712 129.913H182.308V131.345H301.712V129.913Z" fill="#CBCBCB"/>
<path d="M156.351 230.504H141.518V244.823H156.351V230.504Z" fill="#CBCBCB"/>
<path d="M301.712 236.947H182.308V238.379H301.712V236.947Z" fill="#CBCBCB"/>
<path d="M46.8314 235.848L18.7516 233.041C18.9673 231.602 18.8017 230.133 18.2701 228.772C17.7385 227.411 16.8582 226.203 15.7116 225.259C14.565 224.316 13.1894 223.668 11.7133 223.377C10.2372 223.086 8.70877 223.161 7.27073 223.595C5.83269 224.029 4.53196 224.807 3.49006 225.858C2.44816 226.908 1.69907 228.196 1.31275 229.602C0.926432 231.008 0.915498 232.485 1.28095 233.896C1.64641 235.307 2.37634 236.606 3.40257 237.671C2.3599 238.758 1.62549 240.086 1.27038 241.528C0.915274 242.969 0.951475 244.474 1.37549 245.898C1.79951 247.322 2.59698 248.616 3.69078 249.656C4.78459 250.695 6.13771 251.444 7.61926 251.831C9.10081 252.217 10.6607 252.229 12.1479 251.863C13.6352 251.497 14.9996 250.767 16.109 249.744C17.2185 248.72 18.0356 247.437 18.4812 246.019C18.9268 244.602 18.9859 243.097 18.6528 241.651L46.8314 239.15V235.848Z" fill="#CCCCCC"/>
<path d="M75.3857 254.479C86.4244 257.099 97.5448 249.541 98.1203 238.581C98.1363 238.277 98.1443 237.971 98.1443 237.663C98.1444 237.356 98.1364 237.05 98.1203 236.746C97.5448 225.786 86.4244 218.228 75.3857 220.848L37.9372 229.738C36.8584 229.737 35.7899 229.941 34.7929 230.339C33.7959 230.737 32.8899 231.32 32.1267 232.056C31.3635 232.793 30.7581 233.667 30.345 234.629C29.9319 235.591 29.7193 236.622 29.7193 237.663C29.7193 238.705 29.9319 239.736 30.345 240.698C30.7581 241.66 31.3635 242.534 32.1267 243.27C32.8899 244.006 33.7959 244.59 34.7929 244.988C35.7899 245.386 36.8584 245.59 37.9372 245.589L75.3857 254.479Z" fill="#428CD3"/>
</svg>
