<svg width="565" height="1739" viewBox="0 0 565 1739" fill="none" xmlns="http://www.w3.org/2000/svg">
<path fill-rule="evenodd" clip-rule="evenodd" d="M502.222 1739L428.981 1681.03C355.741 1623.07 209.259 1507.13 209.259 1391.2C209.259 1275.27 277.729 1159.33 330.044 1043.4C382.359 927.467 427.732 767.51 385.881 651.576C344.029 535.643 320.953 489.204 258.175 373.27C195.397 257.337 83.7037 115.933 41.8519 57.9667L0 0H565V57.9667C565 115.933 565 231.867 565 347.8C565 463.733 565 579.667 565 695.6C565 811.533 565 927.467 565 1043.4C565 1159.33 565 1275.27 565 1391.2C565 1507.13 565 1623.07 565 1681.03V1739H502.222Z" fill="#0099FF" fill-opacity="0.06"/>
</svg>
