<svg width="527" height="345" viewBox="0 0 527 345" fill="none" xmlns="http://www.w3.org/2000/svg">
<path opacity="0.1" d="M10.2049 110C6.23686 122.005 17.9032 132.801 27.0792 141.496C39.6391 153.424 49.5496 167.858 56.1675 183.861C60.1562 193.531 62.9307 203.936 62.1867 214.37C60.0787 243.966 32.189 263.685 9.90519 283.29C6.74835 286.094 3.59152 289.026 1.75219 292.806C-4.15331 304.934 5.88552 318.911 16.9422 326.646C56.3174 354.177 113.151 345.988 151.343 316.841C171.121 301.743 188.119 281.214 212.087 274.502C227.412 270.232 243.676 272.256 259.533 273.573C283.308 275.541 307.193 275.824 331.008 274.419C339.368 273.903 348.11 273.098 355.111 268.507C372.838 256.9 369.846 229.38 382.639 212.496C391.836 200.363 407.547 195.685 421.224 188.977C442.274 178.597 459.839 162.308 471.769 142.105C482.748 123.43 488.437 102.198 493.986 81.2663C498.171 65.539 502.371 49.0681 498.827 33.1807C495.283 17.2933 481.291 2.45918 465.068 3.85327C452.611 4.92207 442.701 14.7581 430.704 18.2795C401.967 26.7369 374.067 -2.63697 344.256 0.197668C325.485 1.979 310.347 16.2038 298.903 31.1773C287.459 46.1508 277.771 63.009 262.659 74.2856C239.15 91.8407 206.941 92.4603 178.163 86.7755C149.385 81.0908 121.774 69.9019 92.6752 66.174C75.5322 63.9797 62.3934 74.1875 46.9554 79.7999C32.7884 84.9529 15.4542 94.1229 10.2049 110Z" fill="white"/>
<path opacity="0.1" d="M71.2742 345C92.0303 345 108.857 339.891 108.857 333.589C108.857 327.287 92.0303 322.178 71.2742 322.178C50.518 322.178 33.6918 327.287 33.6918 333.589C33.6918 339.891 50.518 345 71.2742 345Z" fill="white"/>
<path opacity="0.1" d="M426.627 194.299C482.062 194.299 527 191.32 527 187.644C527 183.968 482.062 180.988 426.627 180.988C371.193 180.988 326.254 183.968 326.254 187.644C326.254 191.32 371.193 194.299 426.627 194.299Z" fill="white"/>
<g opacity="0.5">
<path opacity="0.5" d="M365.945 35.3168C367.337 35.3168 368.672 35.8695 369.656 36.8533C370.641 37.8371 371.194 39.1714 371.194 40.5627V186.425H360.695V40.5576C360.697 39.1672 361.25 37.8342 362.235 36.8515C363.219 35.8688 364.553 35.3168 365.945 35.3168Z" fill="white"/>
<path opacity="0.5" d="M481.125 35.3168C482.517 35.3168 483.853 35.8695 484.837 36.8533C485.821 37.8371 486.375 39.1714 486.375 40.5627V186.425H475.85V40.5576C475.851 39.8669 475.988 39.1832 476.253 38.5457C476.519 37.9081 476.908 37.3293 477.398 36.8423C477.889 36.3554 478.47 35.97 479.11 35.7082C479.749 35.4464 480.434 35.3134 481.125 35.3168Z" fill="white"/>
<path opacity="0.5" d="M511.763 67.9229C514.663 67.9229 517.013 65.5743 517.013 62.6771C517.013 59.7798 514.663 57.4312 511.763 57.4312L335.311 57.4312C332.412 57.4312 330.062 59.7798 330.062 62.6771C330.062 65.5743 332.412 67.9229 335.311 67.9229L511.763 67.9229Z" fill="white"/>
<path opacity="0.5" d="M357.575 47.0788C357.575 44.8089 355.733 42.9688 353.462 42.9688C351.191 42.9688 349.349 44.8089 349.349 47.0788V78.265C349.349 80.5349 351.191 82.375 353.462 82.375C355.733 82.375 357.575 80.5349 357.575 78.265V47.0788Z" fill="white"/>
<path opacity="0.5" d="M349.349 50.7654C349.349 48.4955 347.508 46.6554 345.237 46.6554C342.965 46.6554 341.124 48.4955 341.124 50.7654V74.5836C341.124 76.8535 342.965 78.6936 345.237 78.6936C347.508 78.6936 349.349 76.8535 349.349 74.5836V50.7654Z" fill="white"/>
<path opacity="0.5" d="M489.495 78.265C489.495 80.5349 491.336 82.375 493.608 82.375C495.879 82.375 497.72 80.5349 497.72 78.265V47.0788C497.72 44.8089 495.879 42.9688 493.608 42.9688C491.336 42.9688 489.495 44.8089 489.495 47.0788V78.265Z" fill="white"/>
<path opacity="0.5" d="M497.72 74.5784C497.72 76.8483 499.562 78.6884 501.833 78.6884C504.105 78.6884 505.946 76.8483 505.946 74.5784V50.7602C505.946 48.4903 504.105 46.6502 501.833 46.6502C499.562 46.6502 497.72 48.4903 497.72 50.7602V74.5784Z" fill="white"/>
</g>
<g opacity="0.5">
<path opacity="0.5" d="M413.056 96.3674H434.518C436.848 96.3674 439.082 97.2922 440.729 98.9383C442.376 100.584 443.302 102.817 443.302 105.145V141.99H404.293V105.145C404.293 102.821 405.216 100.591 406.859 98.9456C408.501 97.3001 410.73 96.3729 413.056 96.3674Z" fill="white"/>
<path opacity="0.5" d="M426.627 138.68H420.918V157.697H426.627V138.68Z" fill="white"/>
<path opacity="0.5" d="M415.209 160.072H409.5V179.088H415.209V160.072Z" fill="white"/>
<path opacity="0.5" d="M438.996 160.072H433.287V179.088H438.996V160.072Z" fill="white"/>
<path opacity="0.5" d="M443.279 156.267H404.271V161.497H443.279V156.267Z" fill="white"/>
</g>
<path opacity="0.1" d="M244.43 314.098C362.655 314.098 458.495 307.075 458.495 298.412C458.495 289.749 362.655 282.726 244.43 282.726C126.205 282.726 30.3645 289.749 30.3645 298.412C30.3645 307.075 126.205 314.098 244.43 314.098Z" fill="white"/>
<path d="M299.853 242.55C299.853 242.55 314.598 249.206 321.734 249.206C321.734 249.206 329.344 251.106 333.617 253.011C337.89 254.916 354.547 255.861 354.547 255.861C354.547 255.861 374.051 262.992 376.428 266.322C378.804 269.652 385.94 254.446 385.94 254.446L382.132 244.941L310.315 231.155L299.853 242.55Z" fill="#FFB9B9"/>
<path opacity="0.05" d="M299.853 242.55C299.853 242.55 314.598 249.206 321.734 249.206C321.734 249.206 329.344 251.106 333.617 253.011C337.89 254.916 354.547 255.861 354.547 255.861C354.547 255.861 374.051 262.992 376.428 266.322C378.804 269.652 385.94 254.446 385.94 254.446L382.132 244.941L310.315 231.155L299.853 242.55Z" fill="black"/>
<path d="M372.635 263.472C372.635 263.472 381.672 275.347 377.869 282.488C374.067 289.629 375.493 289.619 377.869 290.094C380.246 290.569 393.566 293.424 394.997 282.963C396.428 272.502 399.28 249.211 399.28 249.211L379.75 247.306C379.75 247.306 385.004 264.897 372.635 263.472Z" fill="#737A9D"/>
<path d="M260.369 226.864L301.279 245.881C301.279 245.881 314.123 235.895 313.162 230.67L265.592 219.259L260.369 226.864Z" fill="#4C4C78"/>
<path opacity="0.1" d="M260.369 226.864L301.279 245.881C301.279 245.881 314.123 235.895 313.162 230.67L265.592 219.259L260.369 226.864Z" fill="black"/>
<path d="M432.099 251.586L427.8 262.042L417.828 264.406C415.034 262.076 412.046 259.989 408.895 258.169C403.527 255.071 396.464 252.04 389.778 252.521C389.778 252.521 363.139 248.24 361.713 246.325C361.713 246.325 344.586 242.519 340.783 242.994C338.949 243.221 335.007 241.905 331.421 240.475C327.572 238.926 324.131 237.289 324.131 237.289L336.5 217.797C337.942 218.418 339.427 218.936 340.943 219.346C345.671 220.73 354.18 222.527 366.472 222.527C386.451 222.527 414.041 242.968 414.041 242.968C414.041 242.968 414.315 243.061 414.785 243.201C416.852 243.826 422.742 245.297 425.459 242.968C428.766 240.175 432.099 251.586 432.099 251.586Z" fill="#FFB9B9"/>
<path opacity="0.1" d="M432.099 251.586L427.8 262.042L417.828 264.406C415.034 262.076 412.046 259.989 408.895 258.169C423.403 259.259 414.739 243.252 414.739 243.252H414.77C416.836 243.877 422.726 245.349 425.444 243.02C428.766 240.175 432.099 251.586 432.099 251.586Z" fill="black"/>
<path d="M408.952 258.572C408.952 258.572 420.458 274.697 415.617 283.779C410.776 292.861 412.589 292.856 415.617 293.465C418.645 294.075 435.607 297.704 437.42 284.388C438.815 274.149 437.591 254.498 436.95 245.968C436.909 245.43 436.762 244.905 436.516 244.424C436.27 243.943 435.931 243.516 435.519 243.167C435.106 242.818 434.628 242.555 434.113 242.392C433.598 242.23 433.055 242.171 432.517 242.22L415.689 243.769C415.689 243.769 424.7 260.389 408.952 258.572Z" fill="#737A9D"/>
<path d="M135.734 274.402L136.209 297.699L141.443 301.499H159.521L162.848 296.749V274.402L157.614 269.647H140.492L135.734 274.402Z" fill="white"/>
<path opacity="0.2" d="M138.586 274.878C138.586 274.878 141.918 296.269 138.586 298.174L136.209 297.699L135.734 274.883L138.586 274.878Z" fill="white"/>
<path d="M177.594 272.977L181.402 269.172H199.485L203.293 272.977C203.293 272.977 208.051 286.763 204.243 295.794L199.95 300.074H181.867L177.583 296.269L177.594 272.977Z" fill="white"/>
<path opacity="0.1" d="M135.734 274.402L136.209 297.699L141.443 301.499H159.521L162.848 296.749V274.402L157.614 269.647H140.492L135.734 274.402Z" fill="black"/>
<path opacity="0.1" d="M177.594 272.977L181.402 269.172H199.485L203.293 272.977C203.293 272.977 208.051 286.763 204.243 295.794L199.95 300.074H181.867L177.583 296.269L177.594 272.977Z" fill="black"/>
<path opacity="0.2" d="M181.867 273.927C181.867 273.927 185.675 290.569 181.867 296.269H177.583V272.977L181.867 273.927Z" fill="white"/>
<path d="M162.848 194.062C162.848 194.062 164.749 212.603 164.749 214.978C164.749 217.353 163.799 233.05 166.651 248.256C169.503 263.462 164.749 282.478 164.749 282.478H180.446L187.106 231.134L182.347 204.037L180.446 195.482L162.848 194.062Z" fill="#FFB9B9"/>
<path opacity="0.05" d="M162.848 194.062C162.848 194.062 164.749 212.603 164.749 214.978C164.749 217.353 163.799 233.05 166.651 248.256C169.503 263.462 164.749 282.478 164.749 282.478H180.446L187.106 231.134L182.347 204.037L180.446 195.482L162.848 194.062Z" fill="black"/>
<path d="M159.996 146.999C159.996 146.999 139.066 147.474 155.713 182.176C155.713 182.176 159.996 196.437 159.996 198.817C159.996 201.197 181.402 201.192 183.763 198.817C186.124 196.442 179.955 176.951 179.955 167.915C179.955 158.879 173.791 144.148 159.996 146.999Z" fill="#CBCDDA"/>
<path opacity="0.05" d="M159.996 146.999C159.996 146.999 139.066 147.474 155.713 182.176C155.713 182.176 159.996 196.437 159.996 198.817C159.996 201.197 181.402 201.192 183.763 198.817C186.124 196.442 179.955 176.951 179.955 167.915C179.955 158.879 173.791 144.148 159.996 146.999Z" fill="black"/>
<path d="M134.783 126.547C134.783 126.547 152.866 146.038 168.082 131.777L166.181 182.171C166.181 182.171 141.443 152.224 124.331 154.599L134.783 126.547Z" fill="#FFB9B9"/>
<path opacity="0.1" d="M340.922 219.403C340.199 224.974 337.926 236.705 331.4 240.506C327.551 238.957 324.11 237.32 324.11 237.32L336.479 217.828C337.921 218.458 339.406 218.984 340.922 219.403Z" fill="black"/>
<path d="M339.812 216.388C339.812 216.388 338.386 239.685 326.967 241.585L258.003 229.152C254.656 228.544 251.509 227.126 248.837 225.021C246.052 222.832 242.637 219.858 240.617 217.131C239.522 215.644 238.86 214.224 238.969 213.052C239.444 207.822 260.374 195.461 253.239 173.595C254.253 172.792 255.382 172.145 256.587 171.674C262.544 169.201 276.257 167.383 296.05 187.856C296.05 187.881 332.676 217.359 339.812 216.388Z" fill="#4C4C78"/>
<path d="M153.336 276.303L153.812 299.599L159.04 303.405H177.118L180.451 298.649V276.303L175.217 271.552H158.09L153.336 276.303Z" fill="white"/>
<path opacity="0.2" d="M156.188 276.798C156.188 276.798 159.521 298.19 156.188 300.095L153.812 299.62L153.336 276.798H156.188Z" fill="white"/>
<path d="M205.664 274.402L209.472 270.597H227.555L231.363 274.402C231.363 274.402 236.122 288.188 232.314 297.219L228.031 301.499H209.947L205.664 297.694V274.402Z" fill="white"/>
<path opacity="0.2" d="M209.942 275.353C209.942 275.353 213.75 291.994 209.942 297.694H205.659V274.402L209.942 275.353Z" fill="white"/>
<path d="M180.317 283.438H206.052C208.067 283.438 209.699 285.245 209.699 287.481C209.699 289.712 208.067 291.524 206.052 291.524H180.317C178.131 291.524 176.437 289.412 176.7 287.011C176.912 284.972 178.472 283.438 180.317 283.438Z" fill="white"/>
<path opacity="0.1" d="M254.66 209.273C249.571 212.835 244.208 215.169 240.612 217.157C239.516 215.67 238.855 214.25 238.963 213.078C239.439 207.848 260.369 195.487 253.234 173.62C254.248 172.818 255.377 172.17 256.582 171.7C257.7 171.676 258.811 171.524 259.894 171.245C259.894 171.245 264.172 202.617 254.66 209.273Z" fill="black"/>
<path d="M147.865 163.397C147.865 163.397 155 170.528 161.898 175.045C168.263 179.212 156.901 137.25 156.901 137.25C156.901 137.25 163.949 131.571 168.087 128.199C170.851 125.927 174.373 124.783 177.945 124.998C187.467 125.612 204.91 129.614 218.984 148.904C239.439 176.951 257.992 171.245 257.992 171.245C257.992 171.245 262.276 202.623 252.759 209.278C243.242 215.934 232.779 218.309 234.675 222.114C236.571 225.919 226.114 203.573 202.327 199.772C178.539 195.972 152.375 179.331 152.856 171.25C152.861 171.245 145.964 165.788 147.865 163.397Z" fill="#CBCDDA"/>
<path opacity="0.1" d="M142.869 138.939C142.866 137.564 142.745 136.193 142.507 134.839C136.276 131.741 137.16 127.528 137.16 127.528L126.692 155.575C130.52 155.058 134.731 156.132 138.958 158.156C144.522 153.762 142.869 146.524 142.869 138.939Z" fill="black"/>
<path d="M121.939 162.215C135.076 162.215 145.726 151.572 145.726 138.443C145.726 125.314 135.076 114.671 121.939 114.671C108.801 114.671 98.1512 125.314 98.1512 138.443C98.1512 151.572 108.801 162.215 121.939 162.215Z" fill="#FFB9B9"/>
<path opacity="0.1" d="M100.326 143.803C99.8872 145.212 99.2103 146.663 97.9342 147.417C96.3842 148.336 94.2452 147.881 92.8657 146.694C91.4862 145.506 90.7422 143.73 90.3547 141.954C89.7965 139.382 89.8853 136.712 90.613 134.183C91.233 132.041 92.3025 130.053 92.752 127.858C93.2325 125.524 92.9897 123.082 93.527 120.759C94.2555 117.609 96.3325 114.971 98.3578 112.446C98.9925 111.482 99.8152 110.656 100.777 110.017C101.738 109.379 102.818 108.94 103.953 108.728L113.91 105.728C115.797 105.097 117.737 104.634 119.707 104.345C122.238 104.086 124.797 104.31 127.245 105.006C129.194 105.496 131.044 106.32 132.711 107.443C134.363 108.669 135.818 110.14 137.025 111.806C142.29 118.683 145.292 129.934 150.722 136.703C148.578 137.364 146.434 135.154 144.289 135.825C143.985 135.957 143.645 135.984 143.323 135.903C143.005 135.73 142.755 135.453 142.616 135.118C140.726 131.819 137.752 129.276 134.199 127.92C131.564 126.924 127.999 126.929 126.558 129.345C125.581 130.977 125.974 133.037 126.232 134.922C126.49 136.806 126.444 139.052 124.951 140.214C124.126 140.771 123.165 141.096 122.171 141.154C117.537 141.761 112.825 141.3 108.397 139.806C106.847 139.29 105.271 137.674 103.633 138.19C101.422 138.887 100.91 141.928 100.326 143.803Z" fill="black"/>
<path d="M99.8045 143.281C99.3653 144.691 98.6885 146.141 97.4123 146.895C95.8623 147.814 93.7233 147.36 92.3438 146.172C90.9643 144.985 90.2203 143.209 89.8328 141.433C89.2747 138.861 89.3634 136.191 90.0912 133.662C90.7112 131.519 91.7807 129.531 92.2302 127.337C92.7107 125.003 92.4678 122.561 93.0052 120.237C93.7337 117.088 95.8107 114.449 97.836 111.924C98.4707 110.961 99.2934 110.135 100.255 109.496C101.216 108.857 102.297 108.419 103.431 108.207L113.388 105.207C115.275 104.577 117.215 104.116 119.185 103.828C121.717 103.569 124.275 103.794 126.723 104.489C128.672 104.979 130.522 105.804 132.189 106.926C133.841 108.153 135.296 109.624 136.503 111.289C141.768 118.167 144.77 129.418 150.2 136.187C148.056 136.848 145.912 134.638 143.768 135.309C143.463 135.44 143.123 135.467 142.802 135.386C142.479 135.215 142.225 134.938 142.083 134.602C140.194 131.303 137.22 128.76 133.667 127.404C131.032 126.407 127.467 126.413 126.025 128.829C125.049 130.461 125.441 132.521 125.7 134.405C125.958 136.29 125.912 138.536 124.418 139.698C123.593 140.255 122.633 140.58 121.639 140.637C117.005 141.244 112.293 140.783 107.864 139.29C106.314 138.773 104.739 137.157 103.101 137.674C100.9 138.366 100.388 141.407 99.8045 143.281Z" fill="#B96B6B"/>
<g opacity="0.1">
<path opacity="0.1" d="M158.513 135.954L156.901 137.255C156.901 137.255 163.561 161.848 163.825 171.509C167.224 170.59 160.683 144.277 158.513 135.954Z" fill="black"/>
<path opacity="0.1" d="M253.683 205.473C244.171 212.128 233.704 214.503 235.6 218.309C237.496 222.114 227.039 199.767 203.251 195.967C180.937 192.399 156.529 177.534 153.987 169.035C150.422 165.989 147.829 163.402 147.829 163.402C145.927 165.777 152.825 171.245 152.825 171.245C152.349 179.326 178.513 195.967 202.296 199.767C226.078 203.567 236.545 225.914 234.644 222.109C232.743 218.303 243.205 215.913 252.727 209.273C255.45 207.368 257.042 203.438 257.93 198.797C257.011 201.734 255.647 204.115 253.683 205.473Z" fill="black"/>
</g>
<path d="M205.664 251.111C204.238 253.011 203.288 272.502 203.288 272.502C203.288 272.502 208.971 300.549 191.404 297.699C173.838 294.849 189.028 274.883 189.028 274.883L186.651 247.311C177.615 223.56 179.516 206.428 179.516 206.428L177.826 190.902L177.134 184.561L197.589 179.806C197.031 180.55 197.268 185.186 197.77 190.571C198.55 199.008 199.965 209.278 199.965 209.278C204.233 214.028 207.09 249.206 205.664 251.111Z" fill="#FFB9B9"/>
<path opacity="0.1" d="M176.643 137.018C176.643 137.018 155.713 137.493 172.36 172.195C172.36 172.195 176.643 186.456 176.643 188.837C176.643 191.217 198.049 191.212 200.41 188.837C202.771 186.461 196.602 166.97 196.602 157.934C196.602 148.899 190.438 134.163 176.643 137.018Z" fill="black"/>
<path opacity="0.1" d="M197.754 190.571C193.311 191.785 182.42 191.893 177.806 190.902L177.113 184.561L197.568 179.806C197.021 180.544 197.258 185.181 197.754 190.571Z" fill="black"/>
<path d="M175.693 137.018C175.693 137.018 154.762 137.493 171.409 172.195C171.409 172.195 175.693 186.456 175.693 188.837C175.693 191.217 197.098 191.212 199.459 188.837C201.82 186.461 195.651 166.97 195.651 157.934C195.651 148.899 189.488 134.163 175.693 137.018Z" fill="#CBCDDA"/>
<g opacity="0.5">
<path opacity="0.5" d="M38.7707 211.437L23.622 211.747L21.1523 215.144V226.885L24.242 229.049H38.7707L41.8655 225.651V214.53L38.7707 211.437Z" fill="white"/>
<path opacity="0.2" d="M38.4659 213.29C38.4659 213.29 24.552 215.453 23.3172 213.29L23.6272 211.741L38.4659 211.431V213.29Z" fill="white"/>
<path opacity="0.5" d="M40.0106 245.421L42.4855 247.894V259.635L40.0106 262.109C40.0106 262.109 31.0465 265.207 25.172 262.728L22.3871 259.945V248.204L24.862 245.421H40.0106Z" fill="white"/>
<path opacity="0.2" d="M39.3907 248.204C39.3907 248.204 28.5717 250.677 24.862 248.204V245.421H40.0107L39.3907 248.204Z" fill="white"/>
<path opacity="0.5" d="M34.1362 228.966V245.679C34.1001 246.341 33.8033 246.962 33.3105 247.406C32.8177 247.85 32.1691 248.082 31.5064 248.049C30.8436 248.082 30.195 247.85 29.7022 247.406C29.2094 246.962 28.9126 246.341 28.8765 245.679V228.966C28.8765 227.546 30.2509 226.446 31.8112 226.611C32.4212 226.648 32.9963 226.908 33.4255 227.343C33.8548 227.778 34.1079 228.356 34.1362 228.966Z" fill="white"/>
<path opacity="0.5" d="M63.0333 211.911L47.8847 212.221L45.4099 215.619V227.36L48.5047 229.523H63.0333L66.123 226.126V215.004L63.0333 211.911Z" fill="white"/>
<path opacity="0.2" d="M62.7234 213.77C62.7234 213.77 48.8095 215.933 47.5747 213.77L47.8847 212.221L62.7234 211.911V213.77Z" fill="white"/>
<path opacity="0.5" d="M64.2682 245.901L66.743 248.374V260.116L64.2682 262.589C64.2682 262.589 55.304 265.687 49.4295 263.209L46.6447 260.426V248.679L49.1195 245.896L64.2682 245.901Z" fill="white"/>
<path opacity="0.2" d="M63.6534 248.679C63.6534 248.679 52.8344 251.152 49.1247 248.679V245.896H64.2734L63.6534 248.679Z" fill="white"/>
<path opacity="0.5" d="M58.3833 229.441V246.154C58.3473 246.816 58.0504 247.437 57.5576 247.881C57.0649 248.325 56.4162 248.556 55.7535 248.524C55.0907 248.556 54.4421 248.325 53.9494 247.881C53.4566 247.437 53.1597 246.816 53.1237 246.154V229.441C53.1237 228.021 54.498 226.921 56.0583 227.086C56.6684 227.123 57.2434 227.383 57.6727 227.818C58.1019 228.253 58.3551 228.831 58.3833 229.441Z" fill="white"/>
<path opacity="0.5" d="M93.9197 220.854L81.4474 221.107L79.4117 223.906V233.571L81.9589 235.347H93.9197L96.4617 232.549V223.394L93.9197 220.854Z" fill="white"/>
<path opacity="0.2" d="M93.6614 222.377C93.6614 222.377 82.2069 224.159 81.189 222.377L81.4422 221.107L93.6562 220.854L93.6614 222.377Z" fill="white"/>
<path opacity="0.5" d="M94.9375 248.829L96.9732 250.863V260.529L94.9375 262.563C94.9375 262.563 87.5595 265.109 82.7235 263.079L80.4295 260.792V251.116L82.4652 248.829H94.9375Z" fill="white"/>
<path opacity="0.2" d="M94.426 251.116C94.426 251.116 85.5186 253.15 82.4651 251.116V248.829H94.9375L94.426 251.116Z" fill="white"/>
<path opacity="0.5" d="M90.1015 235.28V249.04C90.0695 249.584 89.8241 250.093 89.4187 250.456C89.0133 250.82 88.4807 251.009 87.9367 250.982C87.391 251.009 86.8569 250.818 86.4512 250.452C86.0455 250.087 85.8012 249.575 85.7719 249.03V235.28C85.7898 234.989 85.8685 234.705 86.0028 234.446C86.1372 234.187 86.3242 233.96 86.5519 233.777C86.7796 233.595 87.043 233.462 87.3251 233.388C87.6071 233.313 87.9017 233.298 88.1899 233.344C88.6914 233.374 89.1642 233.588 89.5171 233.946C89.87 234.303 90.0782 234.779 90.1015 235.28Z" fill="white"/>
<path opacity="0.5" d="M113.889 221.241L101.417 221.5L99.3809 224.293V233.959L101.928 235.74H113.889L116.436 232.941V223.787L113.889 221.241Z" fill="white"/>
<path opacity="0.2" d="M113.636 222.77C113.636 222.77 102.181 224.551 101.163 222.77L101.417 221.5L113.631 221.246L113.636 222.77Z" fill="white"/>
<path opacity="0.5" d="M114.907 249.221L116.942 251.255V260.921L114.907 262.955C114.907 262.955 107.529 265.501 102.693 263.472L100.404 261.184V251.498L102.44 249.211L114.907 249.221Z" fill="white"/>
<path opacity="0.2" d="M114.4 251.498C114.4 251.498 105.493 253.532 102.44 251.498V249.211H114.907L114.4 251.498Z" fill="white"/>
<path opacity="0.5" d="M110.05 235.673V249.433C110.021 249.978 109.776 250.489 109.371 250.855C108.965 251.221 108.431 251.411 107.885 251.385C107.339 251.411 106.805 251.221 106.4 250.855C105.994 250.489 105.75 249.978 105.72 249.433V235.673C105.738 235.382 105.817 235.098 105.951 234.839C106.086 234.58 106.273 234.352 106.5 234.17C106.728 233.987 106.991 233.855 107.274 233.78C107.556 233.705 107.85 233.691 108.138 233.736C108.64 233.767 109.113 233.981 109.466 234.338C109.819 234.696 110.027 235.171 110.05 235.673Z" fill="white"/>
</g>
<g opacity="0.8">
<path opacity="0.8" d="M60.543 304.164C60.543 304.164 53.2219 301.685 49.693 308.134C48.7633 309.882 48.2901 311.836 48.3172 313.816C48.3443 315.795 48.8708 317.735 49.848 319.457C52.1627 323.639 56.9315 329.066 65.968 328.586C73.6354 328.178 76.1825 322.328 76.8749 316.891C77.1397 314.852 76.8763 312.779 76.1099 310.87C75.3435 308.962 74.0997 307.282 72.4976 305.991C70.8956 304.7 68.9888 303.842 66.9599 303.499C64.931 303.155 62.8479 303.338 60.9099 304.029L60.543 304.164Z" fill="white"/>
<path opacity="0.1" d="M51.4032 320.03C50.426 318.309 49.8995 316.368 49.8724 314.389C49.8453 312.409 50.3185 310.455 51.2482 308.707C54.7719 302.258 62.0982 304.737 62.0982 304.737L62.4754 304.603C65.2666 303.593 68.3343 303.661 71.0779 304.794C69.5624 303.89 67.8649 303.334 66.1083 303.166C64.3516 302.999 62.5796 303.223 60.9202 303.823L60.543 303.957C60.543 303.957 53.2219 301.479 49.693 307.928C48.7633 309.676 48.2901 311.63 48.3172 313.609C48.3443 315.588 48.8708 317.529 49.848 319.251C51.398 322.003 53.9814 325.292 58.1147 327.083C55.2763 325.387 52.9556 322.949 51.4032 320.03Z" fill="white"/>
<path opacity="0.2" d="M56.761 307.262C56.761 307.262 59.4735 309.394 66.061 307.262H56.761Z" fill="black"/>
<path opacity="0.8" d="M56.1824 291.772C56.1824 291.772 60.8324 304.37 60.45 307.664L64.1339 307.277C64.1339 307.277 57.9339 296.233 59.4839 291.787L56.1824 291.772Z" fill="white"/>
<path opacity="0.2" d="M56.1824 291.772C56.1824 291.772 60.8324 304.37 60.45 307.664L64.1339 307.277C64.1339 307.277 57.9339 296.233 59.4839 291.787L56.1824 291.772Z" fill="black"/>
<path opacity="0.8" d="M75.175 292.804C75.175 292.804 67.8487 289.061 64.573 292.154C61.2973 295.247 60.791 303.152 60.791 303.152C60.791 303.152 72.7363 304.799 75.175 292.804Z" fill="white"/>
<path opacity="0.1" d="M75.175 292.804C75.175 292.804 67.8487 289.061 64.573 292.154C61.2973 295.247 60.791 303.152 60.791 303.152C60.791 303.152 72.7363 304.799 75.175 292.804Z" fill="white"/>
<path opacity="0.8" d="M60.791 303.131C60.791 303.131 62.713 293.956 75.175 292.804" stroke="white" stroke-miterlimit="10"/>
</g>
<path d="M91.45 315.569C91.45 315.569 84.1288 313.091 80.6 319.54C79.6703 321.288 79.1971 323.242 79.2242 325.221C79.2513 327.201 79.7778 329.141 80.755 330.863C83.0697 335.045 87.8385 340.472 96.875 339.992C104.542 339.584 107.09 333.734 107.782 328.297C108.047 326.257 107.783 324.184 107.017 322.276C106.25 320.367 105.007 318.687 103.405 317.397C101.803 316.106 99.8958 315.248 97.8669 314.904C95.838 314.561 93.7549 314.744 91.8168 315.435L91.45 315.569Z" fill="white"/>
<path opacity="0.1" d="M82.3257 331.441C81.3485 329.719 80.822 327.779 80.7949 325.8C80.7678 323.82 81.241 321.866 82.1707 320.118C85.6944 313.669 93.0207 316.148 93.0207 316.148L93.3979 316.013C96.1891 315.004 99.2568 315.072 102 316.204C100.485 315.301 98.7874 314.745 97.0308 314.577C95.2741 314.409 93.5021 314.634 91.8427 315.234L91.4655 315.368C91.4655 315.368 84.1444 312.89 80.6155 319.339C79.6858 321.086 79.2126 323.041 79.2397 325.02C79.2668 326.999 79.7933 328.94 80.7705 330.662C82.3205 333.414 84.9039 336.703 89.0372 338.494C86.1988 336.798 83.8781 334.359 82.3257 331.441Z" fill="white"/>
<path opacity="0.2" d="M87.6835 318.667C87.6835 318.667 90.396 320.8 96.9835 318.667H87.6835Z" fill="black"/>
<path d="M87.0997 303.167C87.0997 303.167 91.7497 315.765 91.3673 319.06L95.0512 318.672C95.0512 318.672 88.8512 307.628 90.4012 303.183L87.0997 303.167Z" fill="white"/>
<path opacity="0.2" d="M87.0997 303.167C87.0997 303.167 91.7497 315.765 91.3673 319.06L95.0512 318.672C95.0512 318.672 88.8512 307.628 90.4012 303.183L87.0997 303.167Z" fill="black"/>
<path d="M106.097 304.215C106.097 304.215 98.7711 300.472 95.4955 303.565C92.2198 306.657 91.7135 314.562 91.7135 314.562C91.7135 314.562 103.659 316.204 106.097 304.215Z" fill="white"/>
<path opacity="0.1" d="M106.097 304.215C106.097 304.215 98.7711 300.472 95.4955 303.565C92.2198 306.657 91.7135 314.562 91.7135 314.562C91.7135 314.562 103.659 316.204 106.097 304.215Z" fill="white"/>
<path d="M91.7135 314.562C91.7135 314.562 93.6355 305.387 106.097 304.236" stroke="white" stroke-miterlimit="10"/>
<path d="M32.55 285.664C32.55 285.664 33.2681 284.863 31.9196 284.543V283.227H32.7308C32.7302 281.635 32.1828 280.092 31.1804 278.855C30.1779 277.618 28.781 276.763 27.2232 276.432V274.836H27.435V272.771H22.2167V274.836H22.3665V276.452C20.8293 276.801 19.4563 277.661 18.4725 278.892C17.4887 280.123 16.9525 281.651 16.9518 283.227H17.6752V284.492C17.6752 284.492 15.9598 285.302 17.6752 286.748C19.3905 288.194 19.1218 289.273 19.1218 289.273C19.1218 289.273 18.3985 291.978 16.957 292.34V317.511C16.957 318.994 17.5465 320.416 18.5959 321.465C19.6452 322.513 21.0685 323.103 22.5525 323.103H26.9752C28.4547 323.097 29.8718 322.506 30.9166 321.459C31.9613 320.412 32.5486 318.994 32.55 317.516V292.34C32.55 292.34 30.0235 290.445 30.4833 289.273C31.083 288.021 31.7738 286.815 32.55 285.664Z" fill="white"/>
</svg>
